<?xml version="1.0" encoding="UTF-8"?>
<svg version="1.1" xmlns="http://www.w3.org/2000/svg" width="150" height="150">
<path d="M0 0 C49.5 0 99 0 150 0 C150 49.5 150 99 150 150 C100.5 150 51 150 0 150 C0 100.5 0 51 0 0 Z " fill="#F9F9F9" transform="translate(0,0)"/>
<path d="M0 0 C1.95703125 1.31640625 1.95703125 1.31640625 4.83203125 3.69140625 C4.83203125 4.35140625 4.83203125 5.01140625 4.83203125 5.69140625 C6.48203125 4.37140625 8.13203125 3.05140625 9.83203125 1.69140625 C8.51203125 1.03140625 7.19203125 0.37140625 5.83203125 -0.30859375 C10.58203125 -1.43359375 10.58203125 -1.43359375 12.83203125 -0.30859375 C13.16203125 -1.62859375 13.49203125 -2.94859375 13.83203125 -4.30859375 C15.15203125 -4.63859375 16.47203125 -4.96859375 17.83203125 -5.30859375 C17.17203125 -3.98859375 16.51203125 -2.66859375 15.83203125 -1.30859375 C18.14203125 -1.30859375 20.45203125 -1.30859375 22.83203125 -1.30859375 C22.83203125 -0.97859375 22.83203125 -0.64859375 22.83203125 -0.30859375 C21.18203125 0.02140625 19.53203125 0.35140625 17.83203125 0.69140625 C17.83203125 1.35140625 17.83203125 2.01140625 17.83203125 2.69140625 C18.82203125 3.18640625 18.82203125 3.18640625 19.83203125 3.69140625 C19.83203125 6.00140625 19.83203125 8.31140625 19.83203125 10.69140625 C17.83203125 7.69140625 17.83203125 7.69140625 16.83203125 4.69140625 C15.84203125 4.19640625 15.84203125 4.19640625 14.83203125 3.69140625 C14.84363281 4.70460938 14.85523437 5.7178125 14.8671875 6.76171875 C14.87657334 8.11327939 14.88567268 9.46484205 14.89453125 10.81640625 C14.90291016 11.4815625 14.91128906 12.14671875 14.91992188 12.83203125 C14.93551659 16.01335256 14.78733485 18.93276683 14.20703125 22.06640625 C14.02140625 23.36578125 14.02140625 23.36578125 13.83203125 24.69140625 C14.47140625 25.31015625 15.11078125 25.92890625 15.76953125 26.56640625 C18.10282177 28.97040254 18.17595278 29.54299502 18.26953125 32.75390625 C17.83203125 36.69140625 17.83203125 36.69140625 16.70703125 38.69140625 C14.04268241 40.1123923 11.7971204 39.88907886 8.83203125 39.69140625 C9.16203125 40.68140625 9.49203125 41.67140625 9.83203125 42.69140625 C15.27703125 43.18640625 15.27703125 43.18640625 20.83203125 43.69140625 C21.95036889 48.16475679 21.54508092 48.69429036 19.83203125 52.69140625 C19.45610059 54.68383875 19.1122358 56.68327365 18.83203125 58.69140625 C22.25782074 55.51601069 22.25782074 55.51601069 24.83203125 51.69140625 C25.49203125 51.69140625 26.15203125 51.69140625 26.83203125 51.69140625 C26.52761646 55.24291217 25.85609132 56.66279427 23.51953125 59.44140625 C21.08723547 61.4777469 19.91202562 62.34918465 16.83203125 62.69140625 C15.34703125 60.71140625 15.34703125 60.71140625 13.83203125 58.69140625 C13.46078125 59.18640625 13.08953125 59.68140625 12.70703125 60.19140625 C10.0404224 62.32469333 8.15309462 62.04471086 4.83203125 61.69140625 C4.17203125 61.03140625 3.51203125 60.37140625 2.83203125 59.69140625 C2.44015625 60.20703125 2.04828125 60.72265625 1.64453125 61.25390625 C-0.16796875 62.69140625 -0.16796875 62.69140625 -2.73046875 62.50390625 C-5.16796875 61.69140625 -5.16796875 61.69140625 -7.16796875 59.69140625 C-7.82796875 60.35140625 -8.48796875 61.01140625 -9.16796875 61.69140625 C-12.04296875 61.81640625 -12.04296875 61.81640625 -15.16796875 61.69140625 C-17.54333422 61.69140625 -19.9195013 61.72146755 -22.29296875 61.81640625 C-25.16796875 61.69140625 -25.16796875 61.69140625 -27.16796875 59.69140625 C-26.78447122 55.47293346 -25.58806426 51.66767367 -24.16796875 47.69140625 C-24.82796875 47.69140625 -25.48796875 47.69140625 -26.16796875 47.69140625 C-26.41546875 48.55765625 -26.66296875 49.42390625 -26.91796875 50.31640625 C-28.77904305 55.34130686 -31.29186419 60.1009757 -36.16796875 62.69140625 C-38.29296875 62.56640625 -38.29296875 62.56640625 -40.16796875 61.69140625 C-40.82796875 60.70140625 -41.48796875 59.71140625 -42.16796875 58.69140625 C-42.53921875 59.18640625 -42.91046875 59.68140625 -43.29296875 60.19140625 C-45.91491268 62.28896139 -47.90639347 61.9088446 -51.16796875 61.69140625 C-51.16796875 61.03140625 -51.16796875 60.37140625 -51.16796875 59.69140625 C-51.72484375 60.20703125 -52.28171875 60.72265625 -52.85546875 61.25390625 C-55.16796875 62.69140625 -55.16796875 62.69140625 -57.85546875 62.44140625 C-60.16796875 61.69140625 -60.16796875 61.69140625 -61.16796875 60.69140625 C-61.21112019 58.0160171 -61.21477316 55.36445804 -61.16796875 52.69140625 C-61.16796875 51.70140625 -61.16796875 50.71140625 -61.16796875 49.69140625 C-62.15509753 50.93512814 -63.1323678 52.18667843 -64.10546875 53.44140625 C-64.65074219 54.1375 -65.19601563 54.83359375 -65.7578125 55.55078125 C-67.14222529 57.65232753 -67.73083862 59.23462424 -68.16796875 61.69140625 C-69.48796875 61.69140625 -70.80796875 61.69140625 -72.16796875 61.69140625 C-72.39396641 55.78223211 -71.76054302 50.90030309 -70.04296875 45.25390625 C-69.81996094 44.51398438 -69.59695312 43.7740625 -69.3671875 43.01171875 C-67.60254945 37.46432069 -65.5887549 31.68711681 -61.16796875 27.69140625 C-58.54296875 26.91015625 -58.54296875 26.91015625 -56.16796875 26.69140625 C-55.16796875 27.69140625 -55.16796875 27.69140625 -55.0703125 29.90625 C-55.08191406 30.80472656 -55.09351562 31.70320313 -55.10546875 32.62890625 C-55.11449219 33.52480469 -55.12351562 34.42070313 -55.1328125 35.34375 C-55.14441406 36.11847656 -55.15601562 36.89320312 -55.16796875 37.69140625 C-55.16796875 38.35140625 -55.16796875 39.01140625 -55.16796875 39.69140625 C-54.50796875 39.69140625 -53.84796875 39.69140625 -53.16796875 39.69140625 C-53.32652344 39.16804688 -53.48507813 38.6446875 -53.6484375 38.10546875 C-55.65256746 28.79304532 -54.4728866 20.08128264 -50.16796875 11.69140625 C-49.79414062 10.94117187 -49.4203125 10.1909375 -49.03515625 9.41796875 C-48.60589844 8.56332031 -48.60589844 8.56332031 -48.16796875 7.69140625 C-47.50796875 7.69140625 -46.84796875 7.69140625 -46.16796875 7.69140625 C-46.16796875 7.03140625 -46.16796875 6.37140625 -46.16796875 5.69140625 C-44.17965063 4.08879194 -42.2064269 2.63193177 -40.10546875 1.19140625 C-39.26338867 0.58619141 -39.26338867 0.58619141 -38.40429688 -0.03125 C-26.61891356 -8.19346976 -11.93783519 -7.20572034 0 0 Z " fill="#EDF6F8" transform="translate(110.16796875,38.30859375)"/>
<path d="M0 0 C1.95703125 1.31640625 1.95703125 1.31640625 4.83203125 3.69140625 C4.83203125 4.35140625 4.83203125 5.01140625 4.83203125 5.69140625 C6.48203125 4.37140625 8.13203125 3.05140625 9.83203125 1.69140625 C8.51203125 1.03140625 7.19203125 0.37140625 5.83203125 -0.30859375 C10.58203125 -1.43359375 10.58203125 -1.43359375 12.83203125 -0.30859375 C13.16203125 -1.62859375 13.49203125 -2.94859375 13.83203125 -4.30859375 C15.15203125 -4.63859375 16.47203125 -4.96859375 17.83203125 -5.30859375 C17.17203125 -3.98859375 16.51203125 -2.66859375 15.83203125 -1.30859375 C18.14203125 -1.30859375 20.45203125 -1.30859375 22.83203125 -1.30859375 C22.83203125 -0.97859375 22.83203125 -0.64859375 22.83203125 -0.30859375 C21.18203125 0.02140625 19.53203125 0.35140625 17.83203125 0.69140625 C17.83203125 1.35140625 17.83203125 2.01140625 17.83203125 2.69140625 C18.82203125 3.18640625 18.82203125 3.18640625 19.83203125 3.69140625 C19.83203125 6.00140625 19.83203125 8.31140625 19.83203125 10.69140625 C17.83203125 7.69140625 17.83203125 7.69140625 16.83203125 4.69140625 C15.84203125 4.19640625 15.84203125 4.19640625 14.83203125 3.69140625 C14.84363281 4.70460938 14.85523437 5.7178125 14.8671875 6.76171875 C14.87657334 8.11327939 14.88567268 9.46484205 14.89453125 10.81640625 C14.90291016 11.4815625 14.91128906 12.14671875 14.91992188 12.83203125 C14.93551659 16.01335256 14.78733485 18.93276683 14.20703125 22.06640625 C14.02140625 23.36578125 14.02140625 23.36578125 13.83203125 24.69140625 C14.47140625 25.31015625 15.11078125 25.92890625 15.76953125 26.56640625 C18.10282177 28.97040254 18.17595278 29.54299502 18.26953125 32.75390625 C17.83203125 36.69140625 17.83203125 36.69140625 16.64453125 38.69140625 C14.27207446 40.00034793 12.49851945 39.907608 9.83203125 39.69140625 C9.50203125 38.04140625 9.17203125 36.39140625 8.83203125 34.69140625 C9.16203125 35.35140625 9.49203125 36.01140625 9.83203125 36.69140625 C11.15203125 36.69140625 12.47203125 36.69140625 13.83203125 36.69140625 C12.54770786 33.19435496 12.54770786 33.19435496 10.83203125 29.69140625 C0.97677581 26.4063211 -9.03979148 30.63172682 -18.4375 33.734375 C-40.95887183 41.15877894 -40.95887183 41.15877894 -52.16796875 39.69140625 C-52.16796875 39.36140625 -52.16796875 39.03140625 -52.16796875 38.69140625 C-51.34296875 38.61664063 -50.51796875 38.541875 -49.66796875 38.46484375 C-40.52568003 37.42409213 -32.87076214 34.99401554 -24.39501953 31.57519531 C-20.26380186 29.93575133 -16.08899849 28.41350408 -11.91796875 26.87890625 C-11.10755127 26.57702393 -10.29713379 26.2751416 -9.4621582 25.96411133 C-8.69991943 25.68204834 -7.93768066 25.39998535 -7.15234375 25.109375 C-6.47913086 24.85953857 -5.80591797 24.60970215 -5.11230469 24.35229492 C-1.44561714 23.10597107 1.64317107 22.58889094 5.51953125 22.69140625 C6.95653863 22.72903656 8.3952877 22.73803484 9.83203125 22.69140625 C10.32703125 22.19640625 10.32703125 22.19640625 10.83203125 21.69140625 C10.18878906 21.81902344 9.54554687 21.94664063 8.8828125 22.078125 C3.79865696 22.63658431 0.33814824 22.33721506 -3.79296875 19.2421875 C-7.06288819 16.54145159 -10.13885342 13.65791665 -13.16796875 10.69140625 C-13.78671875 11.35140625 -14.40546875 12.01140625 -15.04296875 12.69140625 C-17.16796875 14.69140625 -17.16796875 14.69140625 -19.16796875 14.69140625 C-16.8825827 18.78104444 -14.21089949 22.15502729 -11.16796875 25.69140625 C-12.15796875 26.02140625 -13.14796875 26.35140625 -14.16796875 26.69140625 C-14.77125 26.10230469 -15.37453125 25.51320313 -15.99609375 24.90625 C-17.19492188 23.77896484 -17.19492188 23.77896484 -18.41796875 22.62890625 C-19.206875 21.87480469 -19.99578125 21.12070312 -20.80859375 20.34375 C-22.97901053 18.44552198 -22.97901053 18.44552198 -25.27734375 18.8828125 C-25.90125 19.14964844 -26.52515625 19.41648437 -27.16796875 19.69140625 C-28.15796875 20.02140625 -29.14796875 20.35140625 -30.16796875 20.69140625 C-30.49796875 21.35140625 -30.82796875 22.01140625 -31.16796875 22.69140625 C-31.49796875 23.35140625 -31.82796875 24.01140625 -32.16796875 24.69140625 C-33.15796875 25.02140625 -34.14796875 25.35140625 -35.16796875 25.69140625 C-35.16796875 28.66140625 -35.16796875 31.63140625 -35.16796875 34.69140625 C-36.65296875 35.18640625 -36.65296875 35.18640625 -38.16796875 35.69140625 C-38.16796875 33.71140625 -38.16796875 31.73140625 -38.16796875 29.69140625 C-39.81796875 29.69140625 -41.46796875 29.69140625 -43.16796875 29.69140625 C-43.16796875 32.00140625 -43.16796875 34.31140625 -43.16796875 36.69140625 C-44.15796875 36.69140625 -45.14796875 36.69140625 -46.16796875 36.69140625 C-46.16796875 34.71140625 -46.16796875 32.73140625 -46.16796875 30.69140625 C-46.82796875 30.36140625 -47.48796875 30.03140625 -48.16796875 29.69140625 C-46.50121936 27.83477402 -44.81377896 26.00913764 -43.10546875 24.19140625 C-42.63947266 23.66675781 -42.17347656 23.14210938 -41.69335938 22.6015625 C-38.83846302 19.6107187 -37.47539081 18.71870508 -33.296875 18.34765625 C-31.74806641 18.5178125 -31.74806641 18.5178125 -30.16796875 18.69140625 C-30.16796875 18.03140625 -30.16796875 17.37140625 -30.16796875 16.69140625 C-32.80796875 16.69140625 -35.44796875 16.69140625 -38.16796875 16.69140625 C-38.39355469 17.24570312 -38.61914062 17.8 -38.8515625 18.37109375 C-40.55663161 21.3764678 -42.74596826 23.42127628 -45.23046875 25.81640625 C-48.63250358 28.9324639 -48.63250358 28.9324639 -51.16796875 32.69140625 C-50.17796875 32.69140625 -49.18796875 32.69140625 -48.16796875 32.69140625 C-48.16796875 34.01140625 -48.16796875 35.33140625 -48.16796875 36.69140625 C-49.8340878 36.73412725 -51.5017976 36.73204457 -53.16796875 36.69140625 C-55.05038218 34.80899282 -54.42899403 31.77074892 -54.48046875 29.25390625 C-54.44634047 22.55793732 -53.20294379 17.60628461 -50.16796875 11.69140625 C-49.79414062 10.94117187 -49.4203125 10.1909375 -49.03515625 9.41796875 C-48.74898437 8.84820312 -48.4628125 8.2784375 -48.16796875 7.69140625 C-47.50796875 7.69140625 -46.84796875 7.69140625 -46.16796875 7.69140625 C-46.16796875 7.03140625 -46.16796875 6.37140625 -46.16796875 5.69140625 C-44.17965063 4.08879194 -42.2064269 2.63193177 -40.10546875 1.19140625 C-39.54408203 0.78792969 -38.98269531 0.38445313 -38.40429688 -0.03125 C-26.61891356 -8.19346976 -11.93783519 -7.20572034 0 0 Z " fill="#EFCA79" transform="translate(110.16796875,38.30859375)"/>
<path d="M0 0 C1.67542976 0.28604898 3.34385343 0.61781233 5 1 C4.72587237 7.16787162 3.90475274 11.01059373 0 16 C-0.92160281 17.28814938 -1.83823002 18.57987219 -2.75 19.875 C-3.4925 20.90625 -4.235 21.9375 -5 23 C-4.62488281 22.566875 -4.24976563 22.13375 -3.86328125 21.6875 C0.36878216 17.08233276 0.36878216 17.08233276 3.875 16.625 C4.57625 16.74875 5.2775 16.8725 6 17 C6.42589023 22.53657294 4.905247 26.89665983 3 32 C6.12214614 31.31654959 6.12214614 31.31654959 7.31640625 28.85546875 C7.72761719 27.97503906 8.13882813 27.09460938 8.5625 26.1875 C8.97628906 25.31480469 9.39007813 24.44210938 9.81640625 23.54296875 C10.20699219 22.70378906 10.59757812 21.86460938 11 21 C11.66217358 19.66442957 12.32713906 18.33021817 13 17 C14.32 17.33 15.64 17.66 17 18 C16.36843005 23.05255964 14.86540627 27.29593201 13 32 C18.0461211 27.79489908 19.86819397 23.13340841 22 17 C23.32 17 24.64 17 26 17 C26.42589023 22.53657294 24.905247 26.89665983 23 32 C27.08527604 29.12926548 29.27714629 26.71517858 31 22 C31.2261293 19.27661667 31.14179582 16.74138592 31 14 C32.32 13.34 33.64 12.68 35 12 C36 13 36 13 36.0625 15.5625 C36.041875 16.366875 36.02125 17.17125 36 18 C38.475 18.99 38.475 18.99 41 20 C40.40075776 24.19469571 39.42500059 28.00999834 38 32 C43.0461211 27.79489908 44.86819397 23.13340841 47 17 C48.32 17.33 49.64 17.66 51 18 C51.48990279 23.06232884 49.7106322 27.32630846 48 32 C53.0461211 27.79489908 54.86819397 23.13340841 57 17 C56.01 17 55.02 17 54 17 C54 16.34 54 15.68 54 15 C55.32 15 56.64 15 58 15 C58.66 12.03 59.32 9.06 60 6 C61.32 6.33 62.64 6.66 64 7 C64.125 12.75 64.125 12.75 63 15 C64.65 15 66.3 15 68 15 C68 15.66 68 16.32 68 17 C66.02 17.33 64.04 17.66 62 18 C60.68 22.62 59.36 27.24 58 32 C61.90593434 30.69802189 62.41410218 29.11064504 64.5 25.625 C68.68018125 18.67636537 68.68018125 18.67636537 71 17 C73.48046875 16.70703125 73.48046875 16.70703125 76.1875 16.8125 C77.53908203 16.85310547 77.53908203 16.85310547 78.91796875 16.89453125 C79.94857422 16.94673828 79.94857422 16.94673828 81 17 C82.14157393 20.81060594 81.56699874 22.3436696 80 26 C79.62406934 27.9924325 79.28020455 29.9918674 79 32 C82.42578949 28.82460444 82.42578949 28.82460444 85 25 C85.66 25 86.32 25 87 25 C86.69558521 28.55150592 86.02406007 29.97138802 83.6875 32.75 C81.25520422 34.78634065 80.07999437 35.6577784 77 36 C76.01 34.68 75.02 33.36 74 32 C73.62875 32.495 73.2575 32.99 72.875 33.5 C70.20839115 35.63328708 68.32106337 35.35330461 65 35 C64.34 34.34 63.68 33.68 63 33 C62.608125 33.515625 62.21625 34.03125 61.8125 34.5625 C60 36 60 36 57.4375 35.8125 C55 35 55 35 53 33 C52.34 33.66 51.68 34.32 51 35 C48.125 35.125 48.125 35.125 45 35 C42.62463453 35 40.24846745 35.0300613 37.875 35.125 C35 35 35 35 33 33 C33.38349753 28.78152721 34.57990449 24.97626742 36 21 C35.34 21 34.68 21 34 21 C33.7525 21.86625 33.505 22.7325 33.25 23.625 C31.3889257 28.64990061 28.87610456 33.40956945 24 36 C21.875 35.875 21.875 35.875 20 35 C19.34 34.01 18.68 33.02 18 32 C17.62875 32.495 17.2575 32.99 16.875 33.5 C14.25305607 35.59755514 12.26157528 35.21743835 9 35 C9 34.34 9 33.68 9 33 C8.443125 33.515625 7.88625 34.03125 7.3125 34.5625 C5 36 5 36 2.3125 35.75 C0 35 0 35 -1 34 C-1.04315144 31.32461085 -1.04680441 28.67305179 -1 26 C-1 25.01 -1 24.02 -1 23 C-1.98712878 24.24372189 -2.96439905 25.49527218 -3.9375 26.75 C-4.75541016 27.79414062 -4.75541016 27.79414062 -5.58984375 28.859375 C-6.97425654 30.96092128 -7.56286987 32.54321799 -8 35 C-9.32 35 -10.64 35 -12 35 C-12.22603496 29.08985066 -11.59036803 24.21009849 -9.875 18.5625 C-9.65489258 17.82257813 -9.43478516 17.08265625 -9.20800781 16.3203125 C-7.2733673 10.17911054 -4.61297204 4.61297204 0 0 Z " fill="#186282" transform="translate(50,65)"/>
<path d="M0 0 C3.42817153 2.50163868 4.52930338 5.11315892 6 9 C6.66 9.33 7.32 9.66 8 10 C7.66226563 10.94359375 7.32453125 11.8871875 6.9765625 12.859375 C4.1787796 20.8513981 2.05324195 28.55834438 1 37 C2.32 37 3.64 37 5 37 C5.04125 36.34 5.0825 35.68 5.125 35 C6.4051657 30.61086045 9.14809367 27.51473471 12 24 C12.66 24.33 13.32 24.66 14 25 C13.505 26.485 13.505 26.485 13 28 C12.95752021 30.67622658 12.95381631 33.32647745 13 36 C13 39.76687864 12.76462683 40.91190305 11 44 C10.34 44 9.68 44 9 44 C9 44.99 9 45.98 9 47 C9.99 47 10.98 47 12 47 C12 47.66 12 48.32 12 49 C10.2984375 48.7215625 10.2984375 48.7215625 8.5625 48.4375 C7.386875 48.293125 6.21125 48.14875 5 48 C4.67 48.33 4.34 48.66 4 49 C2.00041636 49.04080783 -0.00045254 49.04254356 -2 49 C-3.125 44.25 -3.125 44.25 -2 42 C-1.01 41.34 -0.02 40.68 1 40 C0.34 40 -0.32 40 -1 40 C-1 39.34 -1 38.68 -1 38 C-1.70125 38.433125 -2.4025 38.86625 -3.125 39.3125 C-13.28185328 45.27413127 -13.28185328 45.27413127 -20 44 C-23.68359748 41.19726278 -25.87597879 38.49608486 -27 34 C-28.21672751 24.75287089 -25.09757902 16.45230182 -19.625 9.0625 C-14.20931913 2.56600728 -8.72267841 -0.76514723 0 0 Z " fill="#F3F7F9" transform="translate(37,63)"/>
<path d="M0 0 C0.66 0 1.32 0 2 0 C1.48169383 3.10983703 0.95957575 6.21424852 0.375 9.3125 C0.25125 10.199375 0.1275 11.08625 0 12 C1.09589405 13.3263016 1.09589405 13.3263016 3.8125 13.0625 C5.3903125 13.0315625 5.3903125 13.0315625 7 13 C9.35453537 13 11.70992348 13.02897647 14.0625 13.125 C17.19265527 13.24626957 17.19265527 13.24626957 20 11 C20.4125 11.515625 20.825 12.03125 21.25 12.5625 C22.88290126 14.24773916 22.88290126 14.24773916 25 13.8125 C27.25737382 12.97340108 27.25737382 12.97340108 30 11 C30.495 12.485 30.495 12.485 31 14 C34.79303725 12.99806563 37.71536341 12.18975773 41 10 C41.99 14.455 41.99 14.455 43 19 C43.66 19 44.32 19 45 19 C44.67 19.66 44.34 20.32 44 21 C44.33 21.33 44.66 21.66 45 22 C45 23.32 45 24.64 45 26 C28.4 26 28.4 26 23 23 C23 23.99 23 24.98 23 26 C22.071875 25.814375 21.14375 25.62875 20.1875 25.4375 C16.98656229 24.75876119 16.98656229 24.75876119 14 26 C13.38125 25.835 12.7625 25.67 12.125 25.5 C9.48719714 24.8793405 7.6018854 25.34952865 5 26 C4.67 25.01 4.34 24.02 4 23 C3.01 23 2.02 23 1 23 C0.67 23.99 0.34 24.98 0 26 C-0.66 24.02 -1.32 22.04 -2 20 C-2.66 20.66 -3.32 21.32 -4 22 C-3.6814823 24.10820797 -3.6814823 24.10820797 -3 26 C-3.66 26 -4.32 26 -5 26 C-5 25.34 -5 24.68 -5 24 C-5.7425 24.33 -6.485 24.66 -7.25 25 C-10.03991294 26.0145138 -12.00972898 26 -15 26 C-15.0270043 24.54176788 -15.04639787 23.08339325 -15.0625 21.625 C-15.07410156 20.81289062 -15.08570312 20.00078125 -15.09765625 19.1640625 C-15 17 -15 17 -14 15 C-15.32 15 -16.64 15 -18 15 C-18.33 15.99 -18.66 16.98 -19 18 C-19.66 17.67 -20.32 17.34 -21 17 C-21 16.34 -21 15.68 -21 15 C-21.99 14.67 -22.98 14.34 -24 14 C-22.6078125 13.566875 -22.6078125 13.566875 -21.1875 13.125 C-17.90208333 12.1125 -17.90208333 12.1125 -15 10 C-14.34 11.32 -13.68 12.64 -13 14 C-9.71418244 13.72618187 -8.30103717 13.30103717 -5.9375 10.9375 C-3.62336582 7.42897399 -1.77466168 3.80419499 0 0 Z " fill="#F2F7F7" transform="translate(84,86)"/>
<path d="M0 0 C1.17175781 -0.01836914 1.17175781 -0.01836914 2.3671875 -0.03710938 C6.92967038 -0.0486308 10.78835585 0.21206938 15 2.1875 C16.375 5.3125 16.375 5.3125 17 8.1875 C15.82244141 8.04828125 15.82244141 8.04828125 14.62109375 7.90625 C8.23527184 7.3418834 8.23527184 7.3418834 2.64453125 9.96875 C0.93511999 11.97069968 -0.59126251 13.96526621 -2 16.1875 C-3.65 15.5275 -5.3 14.8675 -7 14.1875 C-7.309375 14.80625 -7.61875 15.425 -7.9375 16.0625 C-8.625 17.4375 -9.3125 18.8125 -10 20.1875 C-12.64 20.1875 -15.28 20.1875 -18 20.1875 C-18.22558594 20.74179687 -18.45117188 21.29609375 -18.68359375 21.8671875 C-20.38866286 24.87256155 -22.57799951 26.91737003 -25.0625 29.3125 C-28.46453483 32.42855765 -28.46453483 32.42855765 -31 36.1875 C-30.01 36.1875 -29.02 36.1875 -28 36.1875 C-28 37.5075 -28 38.8275 -28 40.1875 C-29.66611905 40.230221 -31.33382885 40.22813832 -33 40.1875 C-34.88241343 38.30508657 -34.26102528 35.26684267 -34.3125 32.75 C-34.27837172 26.05403107 -33.03497504 21.10237836 -30 15.1875 C-29.43925781 14.06214844 -29.43925781 14.06214844 -28.8671875 12.9140625 C-28.58101562 12.34429687 -28.29484375 11.77453125 -28 11.1875 C-27.34 11.1875 -26.68 11.1875 -26 11.1875 C-26 10.5275 -26 9.8675 -26 9.1875 C-23.8046875 7.27734375 -23.8046875 7.27734375 -20.875 5.125 C-19.92367187 4.41214844 -18.97234375 3.69929688 -17.9921875 2.96484375 C-12.38117865 -0.36806621 -6.34887133 0.00523834 0 0 Z " fill="#F4C658" transform="translate(90,34.8125)"/>
<path d="M0 0 C1.20995254 0.89364515 2.41786111 1.79005779 3.625 2.6875 C4.36363281 3.23148438 5.10226563 3.77546875 5.86328125 4.3359375 C8 6 8 6 10.8125 8.8125 C15.33578954 11.91671831 19.62074665 11.89471212 25 12 C24.67 12.66 24.34 13.32 24 14 C22.72511719 13.93554688 21.45023438 13.87109375 20.13671875 13.8046875 C14.60897956 13.81116912 9.98066363 15.28404189 4.8125 17.125 C3.89702393 17.43977295 2.98154785 17.7545459 2.03833008 18.07885742 C-4.49274222 20.36177944 -10.80652359 22.98279749 -17.1328125 25.78125 C-24.21943058 28.79354542 -31.37343959 29.46726232 -39 30 C-39 29.01 -39 28.02 -39 27 C-37.35 27 -35.7 27 -34 27 C-34 25.68 -34 24.36 -34 23 C-34.99 23 -35.98 23 -37 23 C-35.42369323 19.12678907 -32.92252331 16.75264837 -29.9375 13.875 C-26.53546517 10.75894235 -26.53546517 10.75894235 -24 7 C-21.36 7 -18.72 7 -16 7 C-16 7.66 -16 8.32 -16 9 C-17.04285156 9.06058594 -18.08570313 9.12117188 -19.16015625 9.18359375 C-23.76479493 10.16260645 -25.27915251 11.6445623 -28.4375 15.0625 C-29.30246094 15.98160156 -30.16742188 16.90070313 -31.05859375 17.84765625 C-32.01958984 18.91306641 -32.01958984 18.91306641 -33 20 C-32.67 20.33 -32.34 20.66 -32 21 C-31.95919217 22.99958364 -31.95745644 25.00045254 -32 27 C-31.01 27 -30.02 27 -29 27 C-29 24.69 -29 22.38 -29 20 C-27.35 20 -25.7 20 -24 20 C-24 21.98 -24 23.96 -24 26 C-23.34 25.67 -22.68 25.34 -22 25 C-21.83820496 23.10077915 -21.83820496 23.10077915 -21.875 20.875 C-21.51499439 16.62285821 -20.36444105 14.83047243 -17.1875 12 C-12.38873946 8.11057307 -12.38873946 8.11057307 -9 8 C-6.640625 9.65234375 -6.640625 9.65234375 -4.25 11.9375 C-3.45078125 12.68902344 -2.6515625 13.44054688 -1.828125 14.21484375 C-1.22484375 14.80394531 -0.6215625 15.39304687 0 16 C0.66 15.67 1.32 15.34 2 15 C1.4946875 14.52949219 0.989375 14.05898438 0.46875 13.57421875 C-0.50578125 12.64029297 -0.50578125 12.64029297 -1.5 11.6875 C-2.1496875 11.07261719 -2.799375 10.45773438 -3.46875 9.82421875 C-5 8 -5 8 -5 5 C-4.34 5 -3.68 5 -3 5 C-2.690625 4.360625 -2.38125 3.72125 -2.0625 3.0625 C-1 1 -1 1 0 0 Z " fill="#F2F3F0" transform="translate(96,48)"/>
<path d="M0 0 C2.63136193 2.46690181 2.76481427 4.34721403 3 7.875 C1.68 7.875 0.36 7.875 -1 7.875 C-1 8.803125 -1 9.73125 -1 10.6875 C-1 15.85276399 -1.30717388 17.6676956 -4.375 21.875 C-5.00148438 22.74125 -5.62796875 23.6075 -6.2734375 24.5 C-6.84320313 25.28375 -7.41296875 26.0675 -8 26.875 C-8.66 27.865 -9.32 28.855 -10 29.875 C-10.99 29.875 -11.98 29.875 -13 29.875 C-12.43179252 24.42020815 -11.05362055 19.96440744 -9 14.875 C-7.02 14.875 -5.04 14.875 -3 14.875 C-3 14.215 -3 13.555 -3 12.875 C-4.65 12.875 -6.3 12.875 -8 12.875 C-8 10.235 -8 7.595 -8 4.875 C-8.99 4.545 -9.98 4.215 -11 3.875 C-11.144375 4.98875 -11.28875 6.1025 -11.4375 7.25 C-12 10.875 -12 10.875 -13 12.875 C-14.32 12.875 -15.64 12.875 -17 12.875 C-17 13.535 -17 14.195 -17 14.875 C-16.01 14.875 -15.02 14.875 -14 14.875 C-16.80383174 25.814192 -16.80383174 25.814192 -21 29.875 C-21.66 29.875 -22.32 29.875 -23 29.875 C-22.125 22 -22.125 22 -21 20.875 C-20.66656449 18.41707971 -20.66656449 18.41707971 -21 15.875 C-21.99 15.215 -22.98 14.555 -24 13.875 C-23.67 10.905 -23.34 7.935 -23 4.875 C-24.98 5.865 -24.98 5.865 -27 6.875 C-27.99 5.885 -28.98 4.895 -30 3.875 C-27.93847611 3.22605763 -25.87573742 2.5809736 -23.8125 1.9375 C-22.66394531 1.57785156 -21.51539062 1.21820313 -20.33203125 0.84765625 C-13.59310104 -1.11951095 -6.74477368 -2.52929013 0 0 Z " fill="#E7F5F8" transform="translate(121,67.125)"/>
<path d="M0 0 C1.36758402 0.3226551 2.72026093 0.70932389 4.0625 1.125 C5.61324219 1.57939453 5.61324219 1.57939453 7.1953125 2.04296875 C13.91236128 4.28453514 18.29192892 6.35078101 22.20703125 12.35546875 C23.0625 14.125 23.0625 14.125 23.0625 16.125 C18.60103555 17.01014024 14.31213549 17.47661524 10.265625 15.04541016 C6.25626073 12.04159959 2.63785234 8.62645793 -0.9375 5.125 C-1.55625 5.785 -2.175 6.445 -2.8125 7.125 C-4.9375 9.125 -4.9375 9.125 -6.9375 9.125 C-4.65211395 13.21463819 -1.98043074 16.58862104 1.0625 20.125 C0.0725 20.455 -0.9175 20.785 -1.9375 21.125 C-2.54078125 20.53589844 -3.1440625 19.94679688 -3.765625 19.33984375 C-4.56484375 18.58832031 -5.3640625 17.83679688 -6.1875 17.0625 C-7.37085938 15.93134766 -7.37085938 15.93134766 -8.578125 14.77734375 C-10.74854178 12.87911573 -10.74854178 12.87911573 -13.046875 13.31640625 C-13.67078125 13.58324219 -14.2946875 13.85007812 -14.9375 14.125 C-15.9275 14.455 -16.9175 14.785 -17.9375 15.125 C-18.2675 15.785 -18.5975 16.445 -18.9375 17.125 C-19.2675 17.785 -19.5975 18.445 -19.9375 19.125 C-20.9275 19.455 -21.9175 19.785 -22.9375 20.125 C-22.9375 23.095 -22.9375 26.065 -22.9375 29.125 C-23.9275 29.455 -24.9175 29.785 -25.9375 30.125 C-25.9375 28.145 -25.9375 26.165 -25.9375 24.125 C-27.5875 24.125 -29.2375 24.125 -30.9375 24.125 C-30.9375 26.435 -30.9375 28.745 -30.9375 31.125 C-31.9275 31.125 -32.9175 31.125 -33.9375 31.125 C-33.9375 29.145 -33.9375 27.165 -33.9375 25.125 C-34.5975 24.795 -35.2575 24.465 -35.9375 24.125 C-34.27075061 22.26836777 -32.58331021 20.44273139 -30.875 18.625 C-30.40900391 18.10035156 -29.94300781 17.57570313 -29.46289062 17.03515625 C-26.60799427 14.04431245 -25.24492206 13.15229883 -21.06640625 12.78125 C-19.51759766 12.95140625 -19.51759766 12.95140625 -17.9375 13.125 C-17.669375 12.50625 -17.40125 11.8875 -17.125 11.25 C-15.9375 9.125 -15.9375 9.125 -12.9375 7.125 C-11.6175 7.785 -10.2975 8.445 -8.9375 9.125 C-8.69 8.568125 -8.4425 8.01125 -8.1875 7.4375 C-4.26533991 0.18150383 -4.26533991 0.18150383 0 0 Z " fill="#C07655" transform="translate(97.9375,43.875)"/>
<path d="M0 0 C2.4375 1.5625 2.4375 1.5625 4 4 C4.67709968 9.2233404 3.76328977 12.55899858 1 17 C-0.875 19.375 -0.875 19.375 -3 21 C-5.75 21.25 -5.75 21.25 -8 21 C-8.33 19.68 -8.66 18.36 -9 17 C-8.236875 16.7525 -7.47375 16.505 -6.6875 16.25 C-3.62245962 14.82439982 -2.53889718 13.99679976 -1 11 C-0.74936268 7.33285151 -0.74936268 7.33285151 -1 4 C-4.75346007 4 -6.95116858 4.12742448 -9.8828125 6.56640625 C-16.27944459 13.64146901 -20.12218386 20.9610267 -20.1875 30.5625 C-20.20167969 31.51253906 -20.21585938 32.46257812 -20.23046875 33.44140625 C-20.18358888 36.24225243 -20.18358888 36.24225243 -18 39 C-13.5328151 39.68725921 -11.56005736 39.36619135 -7.75 36.875 C-5.03408085 34.03562998 -3.50872858 31.60418494 -2 28 C-1.34 28 -0.68 28 0 28 C-0.478425 33.02346252 -1.77985423 36.10192881 -5 40 C-8.39749769 42.79388135 -11.72262458 44.25516436 -16.125 44.5625 C-20.83802715 43.8783509 -22.16237964 42.75567401 -25 39 C-28.03250878 33.80141352 -27.71855557 27.98609321 -26.34765625 22.2890625 C-23.39760496 13.24899116 -18.46612317 5.61788537 -10 1 C-6.40735548 -0.19754817 -3.77282526 -0.33094958 0 0 Z " fill="#186384" transform="translate(37,63)"/>
<path d="M0 0 C0.33 0 0.66 0 1 0 C1.66 2.97 2.32 5.94 3 9 C3.66 9 4.32 9 5 9 C4.67 9.66 4.34 10.32 4 11 C4.33 11.33 4.66 11.66 5 12 C5 13.32 5 14.64 5 16 C-11.6 16 -11.6 16 -17 13 C-17 13.99 -17 14.98 -17 16 C-17.9075 15.814375 -18.815 15.62875 -19.75 15.4375 C-22.68314324 15.04265379 -24.2644657 15.05308428 -27 16 C-27 13.69 -27 11.38 -27 9 C-26.67 9 -26.34 9 -26 9 C-26 10.65 -26 12.3 -26 14 C-25.34 14 -24.68 14 -24 14 C-23.34 11.36 -22.68 8.72 -22 6 C-21.34 6 -20.68 6 -20 6 C-20 5.34 -20 4.68 -20 4 C-20.99 3.67 -21.98 3.34 -23 3 C-22.01 2.34 -21.02 1.68 -20 1 C-19.5875 1.515625 -19.175 2.03125 -18.75 2.5625 C-17.11709874 4.24773916 -17.11709874 4.24773916 -15 3.8125 C-12.74262618 2.97340108 -12.74262618 2.97340108 -10 1 C-9.67 1.99 -9.34 2.98 -9 4 C-4.03088634 2.87302957 -4.03088634 2.87302957 0 0 Z " fill="#EDF8FA" transform="translate(124,96)"/>
<path d="M0 0 C0.70125 0.556875 1.4025 1.11375 2.125 1.6875 C2.723125 2.079375 3.32125 2.47125 3.9375 2.875 C5.92837355 5.91370173 5.65907765 9.17575652 5.125 12.6875 C3.9375 14.6875 3.9375 14.6875 2.125 15.6875 C-0.5625 15.875 -0.5625 15.875 -2.875 15.6875 C-3.37 13.2125 -3.37 13.2125 -3.875 10.6875 C-3.38 11.6775 -3.38 11.6775 -2.875 12.6875 C-1.555 12.6875 -0.235 12.6875 1.125 12.6875 C-0.15932339 9.19044871 -0.15932339 9.19044871 -1.875 5.6875 C-11.73025544 2.40241485 -21.74682273 6.62782057 -31.14453125 9.73046875 C-53.66590308 17.15487269 -53.66590308 17.15487269 -64.875 15.6875 C-64.875 15.3575 -64.875 15.0275 -64.875 14.6875 C-63.6375 14.57535156 -63.6375 14.57535156 -62.375 14.4609375 C-53.23271128 13.42018588 -45.57779339 10.99010929 -37.10205078 7.57128906 C-32.97083311 5.93184508 -28.79602974 4.40959783 -24.625 2.875 C-23.81458252 2.57311768 -23.00416504 2.27123535 -22.16918945 1.96020508 C-21.0258313 1.5371106 -21.0258313 1.5371106 -19.859375 1.10546875 C-19.18616211 0.85563232 -18.51294922 0.6057959 -17.81933594 0.34838867 C-11.9521293 -1.64590168 -5.77681673 -2.63724242 0 0 Z " fill="#125E7F" transform="translate(122.875,62.3125)"/>
<path d="M0 0 C1.14157393 3.81060594 0.56699874 5.3436696 -1 9 C-1.37593066 10.9924325 -1.71979545 12.9918674 -2 15 C1.42578949 11.82460444 1.42578949 11.82460444 4 8 C4.66 8 5.32 8 6 8 C5.69558521 11.55150592 5.02406007 12.97138802 2.6875 15.75 C0.25520422 17.78634065 -0.92000563 18.6577784 -4 19 C-4.99 17.68 -5.98 16.36 -7 15 C-7.4125 15.515625 -7.825 16.03125 -8.25 16.5625 C-8.8275 17.036875 -9.405 17.51125 -10 18 C-12.1875 17.6875 -12.1875 17.6875 -14 17 C-14 15.35 -14 13.7 -14 12 C-14.66 12 -15.32 12 -16 12 C-16.48686589 9.32223762 -16.27483122 7.52785044 -15.015625 5.109375 C-10.81741004 -0.69265242 -6.83515819 -0.85101772 0 0 Z " fill="#175E81" transform="translate(131,82)"/>
<path d="M0 0 C0.66 0.33 1.32 0.66 2 1 C1.67 1.99 1.34 2.98 1 4 C0.95752021 6.67622658 0.95381631 9.32647745 1 12 C1 15.76687864 0.76462683 16.91190305 -1 20 C-1.66 20 -2.32 20 -3 20 C-3 20.99 -3 21.98 -3 23 C-2.01 23 -1.02 23 0 23 C0 23.66 0 24.32 0 25 C-1.134375 24.814375 -2.26875 24.62875 -3.4375 24.4375 C-4.613125 24.293125 -5.78875 24.14875 -7 24 C-7.33 24.33 -7.66 24.66 -8 25 C-9.99958364 25.04080783 -12.00045254 25.04254356 -14 25 C-15.125 20.25 -15.125 20.25 -14 18 C-13.01 17.34 -12.02 16.68 -11 16 C-11.66 16 -12.32 16 -13 16 C-13 15.34 -13 14.68 -13 14 C-14.32 14.33 -15.64 14.66 -17 15 C-16.360625 13.9275 -15.72125 12.855 -15.0625 11.75 C-13.59398727 9.19177818 -12.47145458 6.94659114 -12 4 C-11.34 4.33 -10.68 4.66 -10 5 C-10.33 7.64 -10.66 10.28 -11 13 C-9.68 13 -8.36 13 -7 13 C-6.95875 12.34 -6.9175 11.68 -6.875 11 C-5.5948343 6.61086045 -2.85190633 3.51473471 0 0 Z " fill="#CCDBDE" transform="translate(49,87)"/>
<path d="M0 0 C2.02910711 0.25327449 4.04962145 0.57730068 6.0625 0.9375 C7.16722656 1.13214844 8.27195312 1.32679687 9.41015625 1.52734375 C10.69212891 1.76130859 10.69212891 1.76130859 12 2 C12 2.66 12 3.32 12 4 C11.34 4 10.68 4 10 4 C10.33 4.99 10.66 5.98 11 7 C10.34 7 9.68 7 9 7 C8.67 8.65 8.34 10.3 8 12 C7.34 12 6.68 12 6 12 C5.67 12.66 5.34 13.32 5 14 C1.72724974 14 -0.846632 13.70074844 -4 13 C-4 12.34 -4 11.68 -4 11 C-4.99 11 -5.98 11 -7 11 C-7.33 11.99 -7.66 12.98 -8 14 C-8.66 10.04 -9.32 6.08 -10 2 C-6.80285048 0.93428349 -4.34084942 1 -1 1 C-0.67 0.67 -0.34 0.34 0 0 Z " fill="#EEFAFC" transform="translate(92,98)"/>
<path d="M0 0 C0.99 0 1.98 0 3 0 C3.66 0 4.32 0 5 0 C5.43656356 9.16783475 3.81686855 16.72891431 -2 24 C-2.99 24.33 -3.98 24.66 -5 25 C-4.33333333 21 -3.66666667 17 -3 13 C-4.32 12.34 -5.64 11.68 -7 11 C-6.95875 9.88625 -6.9175 8.7725 -6.875 7.625 C-6.58878141 3.95633975 -6.58878141 3.95633975 -9 2 C-5.84343086 0.12944051 -3.64314294 -0.18682784 0 0 Z " fill="#F2F8FA" transform="translate(93,72)"/>
<path d="M0 0 C7.31946634 0.26616241 14.5407668 2.40146882 19.74609375 7.81640625 C23 12.23176346 23 12.23176346 23 15 C17.4625855 15.981038 13.50582788 15.93284465 8.6328125 12.9140625 C7.52958568 12.04761467 6.44335038 11.15910325 5.375 10.25 C4.85454102 9.80736816 4.33408203 9.36473633 3.79785156 8.90869141 C1.17542882 6.5218838 -0.78606114 4.65341745 -1 1 C-0.67 0.67 -0.34 0.34 0 0 Z " fill="#C86E48" transform="translate(98,45)"/>
<path d="M0 0 C1.875 0.3125 1.875 0.3125 4 1 C6 4 6 4 6 8 C4.68 8 3.36 8 2 8 C2 8.928125 2 9.85625 2 10.8125 C2 15.97776399 1.69282612 17.7926956 -1.375 22 C-2.31472656 23.299375 -2.31472656 23.299375 -3.2734375 24.625 C-3.84320313 25.40875 -4.41296875 26.1925 -5 27 C-5.66 27.99 -6.32 28.98 -7 30 C-7.99 30 -8.98 30 -10 30 C-9.43179252 24.54520815 -8.05362055 20.08940744 -6 15 C-4.02 15 -2.04 15 0 15 C0 14.34 0 13.68 0 13 C-1.65 13 -3.3 13 -5 13 C-4.96744792 10.98177083 -4.93489583 8.96354167 -4.90234375 6.9453125 C-4.87350758 4.91814596 -4.87350758 4.91814596 -6 3 C-4.02 3 -2.04 3 0 3 C0 2.01 0 1.02 0 0 Z " fill="#E7F3F6" transform="translate(118,67)"/>
<path d="M0 0 C1.65 0.33 3.3 0.66 5 1 C4.65275529 8.81300592 2.68670919 12.91028443 -2.5 18.875 C-5 21 -5 21 -9 21 C-10 19 -10 19 -9.43359375 16.6796875 C-7.15034925 10.25078731 -4.45168289 5.1787911 0 0 Z " fill="#196281" transform="translate(50,65)"/>
<path d="M0 0 C0.33 0 0.66 0 1 0 C1.33 1.65 1.66 3.3 2 5 C2.99 5 3.98 5 5 5 C4.649375 5.598125 4.29875 6.19625 3.9375 6.8125 C2.66695302 9.10813214 2.66695302 9.10813214 4 12 C4 11.01 4 10.02 4 9 C6.31 8.34 8.62 7.68 11 7 C7 11.66666667 3 16.33333333 -1 21 C-0.01 21 0.98 21 2 21 C2 22.32 2 23.64 2 25 C0.33388095 25.042721 -1.33382885 25.04063832 -3 25 C-4.88241343 23.11758657 -4.26102528 20.07934267 -4.3125 17.5625 C-4.29206093 10.90617585 -3.03789576 5.88592304 0 0 Z " fill="#F2C65C" transform="translate(60,50)"/>
<path d="M0 0 C0.99 0.33 1.98 0.66 3 1 C2.01 2.485 2.01 2.485 1 4 C3.31 4 5.62 4 8 4 C8 4.33 8 4.66 8 5 C6.35 5.33 4.7 5.66 3 6 C3 6.66 3 7.32 3 8 C3.66 8.33 4.32 8.66 5 9 C5 11.31 5 13.62 5 16 C3 13 3 13 2 10 C1.34 9.67 0.68 9.34 0 9 C0.02320312 10.02480469 0.04640625 11.04960938 0.0703125 12.10546875 C0.08908036 13.46613851 0.10727947 14.8268162 0.125 16.1875 C0.15013672 17.19780273 0.15013672 17.19780273 0.17578125 18.22851562 C0.21538674 22.28807807 -0.19979998 25.34998815 -2 29 C-2.66 29 -3.32 29 -4 29 C-4 28.01 -4 27.02 -4 26 C-3.34 26 -2.68 26 -2 26 C-2 20.39 -2 14.78 -2 9 C-3.65 10.32 -5.3 11.64 -7 13 C-7 11.35 -7 9.7 -7 8 C-6.34 7.67 -5.68 7.34 -5 7 C-6.32 6.34 -7.64 5.68 -9 5 C-4.25 3.875 -4.25 3.875 -2 5 C-1.855625 4.360625 -1.71125 3.72125 -1.5625 3.0625 C-1 1 -1 1 0 0 Z " fill="#C5B9A4" transform="translate(125,33)"/>
<path d="M0 0 C1.32 0 2.64 0 4 0 C4.125 4.75 4.125 4.75 3 7 C4.32 7.33 5.64 7.66 7 8 C4.19616826 18.939192 4.19616826 18.939192 0 23 C-0.66 23 -1.32 23 -2 23 C-1.125 15.125 -1.125 15.125 0 14 C0.33343551 11.54207971 0.33343551 11.54207971 0 9 C-0.99 8.34 -1.98 7.68 -3 7 C-1.125 1.125 -1.125 1.125 0 0 Z " fill="#C1DCE5" transform="translate(100,74)"/>
<path d="M0 0 C1.34173403 0.92543709 2.67320159 1.86577405 4 2.8125 C5.11375 3.59560547 5.11375 3.59560547 6.25 4.39453125 C6.8275 4.92433594 7.405 5.45414063 8 6 C8 10.38968456 5.87194899 11.76905739 3 15 C1.84481082 14.09515208 0.70114594 13.1755794 -0.4375 12.25 C-1.07558594 11.73953125 -1.71367188 11.2290625 -2.37109375 10.703125 C-4.18810554 8.80332371 -4.60423197 7.56413092 -5 5 C-4.34 5 -3.68 5 -3 5 C-2.5359375 4.0409375 -2.5359375 4.0409375 -2.0625 3.0625 C-1 1 -1 1 0 0 Z " fill="#FCF0E7" transform="translate(96,48)"/>
<path d="M0 0 C2.31 0 4.62 0 7 0 C8.40891424 3.87675765 9.61430415 7.31137791 8.16015625 11.30859375 C5.88941844 15.07015031 4.10176728 17.24838693 0 19 C0.875 12.25 0.875 12.25 2 10 C2.039992 8.00039988 2.04346799 5.99952758 2 4 C1.34 3.67 0.68 3.34 0 3 C0 2.01 0 1.02 0 0 Z " fill="#DBEEF4" transform="translate(73,78)"/>
<path d="M0 0 C5.78461538 4.18461538 5.78461538 4.18461538 6.875 8.3125 C6.936875 9.6428125 6.936875 9.6428125 7 11 C6.01 11.33 5.02 11.66 4 12 C4 12.99 4 13.98 4 15 C3.0925 14.814375 2.185 14.62875 1.25 14.4375 C-1.68314324 14.04265379 -3.2644657 14.05308428 -6 15 C-6 12.69 -6 10.38 -6 8 C-5.67 8 -5.34 8 -5 8 C-5 9.65 -5 11.3 -5 13 C-4.34 13 -3.68 13 -3 13 C-2.34 10.36 -1.68 7.72 -1 5 C-0.34 5 0.32 5 1 5 C1 4.34 1 3.68 1 3 C0.01 2.67 -0.98 2.34 -2 2 C-1.34 1.34 -0.68 0.68 0 0 Z " fill="#DCEDF3" transform="translate(103,97)"/>
<path d="M0 0 C0.66 0 1.32 0 2 0 C2 5.61 2 11.22 2 17 C-1 16 -1 16 -3.125 12.6875 C-6.11540774 8.21569027 -10.0521285 6.73552791 -15 5 C-12 4 -12 4 -8.5 5.25 C-5.65354771 6.67322614 -3.95639957 7.58327112 -2 10 C-2.04125 8.72125 -2.0825 7.4425 -2.125 6.125 C-2.1953125 3.9453125 -2.1953125 3.9453125 -2 2 C-1.34 1.34 -0.68 0.68 0 0 Z " fill="#F6E0BB" transform="translate(121,42)"/>
<path d="M0 0 C2.375 -0.125 2.375 -0.125 5 0 C7.95183101 2.95183101 8.08663988 5.95511947 9 10 C8.34 10 7.68 10 7 10 C7 9.34 7 8.68 7 8 C6.2575 8.33 5.515 8.66 4.75 9 C1.96008706 10.0145138 -0.00972898 10 -3 10 C-3 7.69 -3 5.38 -3 3 C-2.01 2.67 -1.02 2.34 0 2 C0 1.34 0 0.68 0 0 Z " fill="#E7F3F6" transform="translate(72,102)"/>
<path d="M0 0 C0.33 0 0.66 0 1 0 C1.39363688 7.74152536 -0.05789567 14.52058632 -2 22 C-2.99 22 -3.98 22 -5 22 C-5.25 15.375 -5.25 15.375 -3 12 C-3.66 11.67 -4.32 11.34 -5 11 C-4.51421457 7.87709365 -4.0013988 5.00419641 -3 2 C-2.01 2 -1.02 2 0 2 C0 1.34 0 0.68 0 0 Z " fill="#126285" transform="translate(17,75)"/>
<path d="M0 0 C0.66 0 1.32 0 2 0 C1.521575 5.02346252 0.22014577 8.10192881 -3 12 C-6.50293283 14.88058435 -9.76879745 16.24783547 -14.3125 16.4375 C-15.529375 16.293125 -16.74625 16.14875 -18 16 C-18.66 15.01 -19.32 14.02 -20 13 C-19.35933594 12.99742188 -18.71867187 12.99484375 -18.05859375 12.9921875 C-12.18772324 12.72970447 -8.65667817 11.83937638 -4.40625 7.69921875 C-2.44342633 5.32747349 -1.15106146 2.84379891 0 0 Z " fill="#22627C" transform="translate(35,91)"/>
<path d="M0 0 C-0.33 0.99 -0.66 1.98 -1 3 C-1.66 3 -2.32 3 -3 3 C-2.01 5.97 -1.02 8.94 0 12 C0.33 12 0.66 12 1 12 C1.33 10.35 1.66 8.7 2 7 C2.33 7 2.66 7 3 7 C3.04254356 8.99954746 3.04080783 11.00041636 3 13 C2 14 2 14 -1.5625 14.0625 C-2.696875 14.041875 -3.83125 14.02125 -5 14 C-5 13.01 -5 12.02 -5 11 C-5.99 11 -6.98 11 -8 11 C-8.33 11.99 -8.66 12.98 -9 14 C-9 11.69 -9 9.38 -9 7 C-8.01 7.495 -8.01 7.495 -7 8 C-7 7.01 -7 6.02 -7 5 C-2.58139535 0 -2.58139535 0 0 0 Z " fill="#9EB7C0" transform="translate(59,98)"/>
<path d="M0 0 C4.875 1.875 4.875 1.875 6 3 C7.84891946 3.23363881 9.70488031 3.41303635 11.5625 3.5625 C12.57441406 3.64628906 13.58632812 3.73007812 14.62890625 3.81640625 C15.80259766 3.90728516 15.80259766 3.90728516 17 4 C16.67 4.66 16.34 5.32 16 6 C14.7625 5.9175 13.525 5.835 12.25 5.75 C6.91959571 5.71610236 2.46533732 7.30010581 -2.49609375 9.125 C-5 10 -5 10 -7 10 C-7 9.34 -7 8.68 -7 8 C-6.34 8 -5.68 8 -5 8 C-4.731875 7.236875 -4.46375 6.47375 -4.1875 5.6875 C-3.05575888 3.12619116 -2.08776599 1.80307062 0 0 Z " fill="#F8F2EC" transform="translate(104,56)"/>
<path d="M0 0 C1.32 0.33 2.64 0.66 4 1 C4.35472712 5.25672542 3.51390098 6.68165071 1 10 C0.27954633 13.15118325 0.27954633 13.15118325 0 16 C0.99 16.33 1.98 16.66 3 17 C3 17.33 3 17.66 3 18 C1.35 18 -0.3 18 -2 18 C-3.86849038 14.15310804 -4.23744595 12.09309045 -3 8 C-2.04700731 5.31155747 -1.03636067 2.65849041 0 0 Z " fill="#166289" transform="translate(97,82)"/>
<path d="M0 0 C2.625 0.9375 2.625 0.9375 5 2 C-6.5664249 7.99824383 -19.00189793 11.14502041 -32 10 C-32 9.67 -32 9.34 -32 9 C-30.7625 8.88785156 -30.7625 8.88785156 -29.5 8.7734375 C-19.06048992 7.58501113 -9.42213821 4.7110691 0 0 Z " fill="#35687C" transform="translate(90,68)"/>
<path d="M0 0 C0.66 0.66 1.32 1.32 2 2 C1.73242666 5.87981349 -0.6338487 8.07710722 -3 11 C-4.04451438 12.97711651 -5.05698138 14.97250996 -6 17 C-6.33 17 -6.66 17 -7 17 C-7.12375 16.195625 -7.2475 15.39125 -7.375 14.5625 C-7.684375 13.2940625 -7.684375 13.2940625 -8 12 C-8.66 11.67 -9.32 11.34 -10 11 C-9.09066991 9.72390677 -8.17217147 8.45434447 -7.25 7.1875 C-6.73953125 6.47980469 -6.2290625 5.77210937 -5.703125 5.04296875 C-3.97517642 2.97022309 -2.21473524 1.52624146 0 0 Z " fill="#1D6381" transform="translate(25,65)"/>
<path d="M0 0 C2.64 0 5.28 0 8 0 C8 0.66 8 1.32 8 2 C6.95714844 2.06058594 5.91429687 2.12117188 4.83984375 2.18359375 C0.23520507 3.16260645 -1.27915251 4.6445623 -4.4375 8.0625 C-5.30246094 8.98160156 -6.16742188 9.90070313 -7.05859375 10.84765625 C-8.01958984 11.91306641 -8.01958984 11.91306641 -9 13 C-8.67 13.33 -8.34 13.66 -8 14 C-7.95919217 15.99958364 -7.95745644 18.00045254 -8 20 C-7.01 20.33 -6.02 20.66 -5 21 C-8.3 21 -11.6 21 -15 21 C-15 20.67 -15 20.34 -15 20 C-13.35 20 -11.7 20 -10 20 C-10 18.68 -10 17.36 -10 16 C-10.99 16 -11.98 16 -13 16 C-11.42369323 12.12678907 -8.92252331 9.75264837 -5.9375 6.875 C-2.53546517 3.75894235 -2.53546517 3.75894235 0 0 Z " fill="#F6DDA9" transform="translate(72,55)"/>
<path d="M0 0 C0.33 1.32 0.66 2.64 1 4 C0.34 4 -0.32 4 -1 4 C-0.814375 4.5775 -0.62875 5.155 -0.4375 5.75 C0.05236138 8.26928708 -0.24220802 9.57506565 -1 12 C-1.185625 12.7425 -1.37125 13.485 -1.5625 14.25 C-1.706875 14.8275 -1.85125 15.405 -2 16 C-2.99 15.67 -3.98 15.34 -5 15 C-5 14.34 -5 13.68 -5 13 C-5.66 12.67 -6.32 12.34 -7 12 C-6.67 11.34 -6.34 10.68 -6 10 C-6.33 9.67 -6.66 9.34 -7 9 C-7.69100553 7.00827818 -8.35902703 5.00838196 -9 3 C-7.8553125 3.2784375 -7.8553125 3.2784375 -6.6875 3.5625 C-3.91032625 4.22819173 -3.91032625 4.22819173 -1 3 C-0.67 2.01 -0.34 1.02 0 0 Z " fill="#E8F3F6" transform="translate(134,96)"/>
<path d="M0 0 C0.66 0.33 1.32 0.66 2 1 C1.67 2.093125 1.34 3.18625 1 4.3125 C-0.13086649 7.84578884 -0.13086649 7.84578884 0 11 C-1.48551921 13.18052998 -3.24174197 15.02195971 -5 17 C-5.61875 16.814375 -6.2375 16.62875 -6.875 16.4375 C-9.04160178 15.76313824 -9.04160178 15.76313824 -11 17 C-10.67 15.35 -10.34 13.7 -10 12 C-9.67 12.66 -9.34 13.32 -9 14 C-8.01 14 -7.02 14 -6 14 C-6 12.02 -6 10.04 -6 8 C-5.01 8 -4.02 8 -3 8 C-2.690625 6.865625 -2.38125 5.73125 -2.0625 4.5625 C-1 1 -1 1 0 0 Z " fill="#346F8C" transform="translate(51,69)"/>
<path d="M0 0 C-0.7115625 0.6496875 -0.7115625 0.6496875 -1.4375 1.3125 C-3.23686957 3.02309613 -3.23686957 3.02309613 -4 6 C-4.99 6 -5.98 6 -7 6 C-7.33 7.32 -7.66 8.64 -8 10 C-9.65 9.67 -11.3 9.34 -13 9 C-13 5 -13 5 -11 2.25 C-6.97050183 -0.77212363 -4.92559408 -0.41742323 0 0 Z " fill="#C56C42" transform="translate(81,57)"/>
<path d="M0 0 C2 1 2 1 3 3 C3.99 2.67 4.98 2.34 6 2 C6 3.98 6 5.96 6 8 C6.66 8.33 7.32 8.66 8 9 C7.278125 8.814375 6.55625 8.62875 5.8125 8.4375 C2.87173027 7.98004693 0.85896942 8.26483643 -2 9 C-2.66 7.68 -3.32 6.36 -4 5 C-2.68 3.35 -1.36 1.7 0 0 Z " fill="#9AB1BA" transform="translate(114,103)"/>
<path d="M0 0 C0.66 0.99 1.32 1.98 2 3 C2.66 3.33 3.32 3.66 4 4 C2.02 9.94 0.04 15.88 -2 22 C-4 19 -4 19 -4 16 C-4.99 15.67 -5.98 15.34 -7 15 C-6.21625 14.01 -5.4325 13.02 -4.625 12 C-1.82594037 8.12254912 -0.90060357 4.66676397 0 0 Z " fill="#DBEFF5" transform="translate(41,69)"/>
<path d="M0 0 C0.33 0.66 0.66 1.32 1 2 C1.66 2 2.32 2 3 2 C1.68292571 6.60976 -0.07495169 10.18857342 -3 14 C-3.99 14.33 -4.98 14.66 -6 15 C-5.855625 14.154375 -5.71125 13.30875 -5.5625 12.4375 C-4.94693073 8.95959657 -4.94693073 8.95959657 -4.6875 5.25 C-4 2 -4 2 -1.9375 0.5625 C-1.298125 0.376875 -0.65875 0.19125 0 0 Z " fill="#E4F1F3" transform="translate(94,82)"/>
<path d="M0 0 C0.66 0.33 1.32 0.66 2 1 C1.40362909 2.58628608 0.79754075 4.16892059 0.1875 5.75 C-0.31716797 7.07257813 -0.31716797 7.07257813 -0.83203125 8.421875 C-1.98828801 10.97414744 -3.09435118 12.94554737 -5 15 C-5.99 15 -6.98 15 -8 15 C-7.40380045 10.13103697 -6.43023178 5.67209049 -5 1 C-4.67 2.32 -4.34 3.64 -4 5 C-2.29159719 3.36587557 -1.06546953 2.13093906 0 0 Z " fill="#E7F6FB" transform="translate(61,82)"/>
<path d="M0 0 C2.25 0.375 2.25 0.375 3.25 1.375 C3.63900504 5.42065239 3.6427477 7.70587428 1.5625 11.25 C-0.96360261 13.57128348 -2.37765029 14.09397086 -5.75 14.375 C-6.08 15.365 -6.41 16.355 -6.75 17.375 C-6.75 16.715 -6.75 16.055 -6.75 15.375 C-7.74 15.045 -8.73 14.715 -9.75 14.375 C-6.30930376 12.08120251 -5.02709699 11.375 -0.75 11.375 C-0.42 10.055 -0.09 8.735 0.25 7.375 C0.91 7.375 1.57 7.375 2.25 7.375 C1.92 6.055 1.59 4.735 1.25 3.375 C0.693125 3.519375 0.13625 3.66375 -0.4375 3.8125 C-2.86384195 4.40269128 -5.29906345 4.898429 -7.75 5.375 C-3.45967742 0.47177419 -3.45967742 0.47177419 0 0 Z " fill="#DCEFF5" transform="translate(33.75,65.625)"/>
<path d="M0 0 C0.66 0.33 1.32 0.66 2 1 C1.67 1.99 1.34 2.98 1 4 C0.5982661 9.14943278 0.5982661 9.14943278 2 14 C1.34 14 0.68 14 0 14 C-0.33 14.66 -0.66 15.32 -1 16 C-2.32 15.67 -3.64 15.34 -5 15 C-4.744398 13.06043186 -4.46995354 11.12334011 -4.1875 9.1875 C-4.03667969 8.10855469 -3.88585938 7.02960938 -3.73046875 5.91796875 C-2.98387597 2.93559009 -2.37924316 1.85776521 0 0 Z " fill="#F4FAF8" transform="translate(49,87)"/>
<path d="M0 0 C0.33 0 0.66 0 1 0 C1 5.61 1 11.22 1 17 C1.99 17 2.98 17 4 17 C4 18.32 4 19.64 4 21 C2.33388095 21.042721 0.66617115 21.04063832 -1 21 C-2.90268707 19.09731293 -2.17427843 15.84310855 -2.1875 13.3125 C-2.20167969 12.09175781 -2.21585938 10.87101562 -2.23046875 9.61328125 C-2.00356517 6.05589459 -1.28540452 3.30750332 0 0 Z " fill="#E9C66C" transform="translate(58,54)"/>
<path d="M0 0 C2.45327682 1.18706943 3.47654 2.673012 4.9375 4.9375 C3.9475 5.4325 3.9475 5.4325 2.9375 5.9375 C2.28536708 7.96213255 2.28536708 7.96213255 1.9375 9.9375 C0.2875 9.6075 -1.3625 9.2775 -3.0625 8.9375 C-3.18625 8.133125 -3.31 7.32875 -3.4375 6.5 C-3.746875 5.2315625 -3.746875 5.2315625 -4.0625 3.9375 C-4.7225 3.6075 -5.3825 3.2775 -6.0625 2.9375 C-2.68149179 -0.08125733 -2.68149179 -0.08125733 0 0 Z " fill="#E7D4C8" transform="translate(86.0625,56.0625)"/>
<path d="M0 0 C0.99 0 1.98 0 3 0 C2.36391668 3.13801103 1.29242198 5.52149131 -0.375 8.25 C-0.79523438 8.95640625 -1.21546875 9.6628125 -1.6484375 10.390625 C-2.31746094 11.18726562 -2.31746094 11.18726562 -3 12 C-3.99 12 -4.98 12 -6 12 C-5.59874358 6.38241014 -3.87417866 3.87417866 0 0 Z " fill="#DAEFF7" transform="translate(124,85)"/>
<path d="M0 0 C8.75 1.75 8.75 1.75 11 4 C3.57142857 3 3.57142857 3 0 2 C-0.2475 2.556875 -0.495 3.11375 -0.75 3.6875 C-2.21606015 6.39971127 -4.02989471 8.63587365 -6 11 C-6.7425 10.773125 -7.485 10.54625 -8.25 10.3125 C-11.05914993 9.70523302 -11.05914993 9.70523302 -13.3125 11.4375 C-13.869375 11.953125 -14.42625 12.46875 -15 13 C-13.5 10 -13.5 10 -12 7 C-10.35 7.33 -8.7 7.66 -7 8 C-4.69 5.36 -2.38 2.72 0 0 Z " fill="#FBE5B7" transform="translate(95,42)"/>
<path d="M0 0 C0.99 0.33 1.98 0.66 3 1 C2.34 1 1.68 1 1 1 C1.33 1.66 1.66 2.32 2 3 C2.99 3.33 3.98 3.66 5 4 C5 6.31 5 8.62 5 11 C4.01 10.67 3.02 10.34 2 10 C2 9.34 2 8.68 2 8 C1.01 8 0.02 8 -1 8 C-1.33 8.99 -1.66 9.98 -2 11 C-2 7.7 -2 4.4 -2 1 C-1.34 0.67 -0.68 0.34 0 0 Z " fill="#C1D4D9" transform="translate(86,101)"/>
<path d="M0 0 C3.625 -0.1875 3.625 -0.1875 7 0 C7 0.99 7 1.98 7 3 C4.36 3.33 1.72 3.66 -1 4 C-1.33 5.98 -1.66 7.96 -2 10 C-2.33 9.34 -2.66 8.68 -3 8 C-3.99 8 -4.98 8 -6 8 C-6 7.01 -6 6.02 -6 5 C-6.66 4.67 -7.32 4.34 -8 4 C-7.05125 3.896875 -6.1025 3.79375 -5.125 3.6875 C-1.70892499 3.31460705 -1.70892499 3.31460705 0 0 Z " fill="#F6F9F7" transform="translate(111,67)"/>
<path d="M0 0 C1.99954746 -0.04254356 4.00041636 -0.04080783 6 0 C7 1 7 1 7.125 3.5 C7 6 7 6 6 7 C4.00041636 7.04080783 1.99954746 7.04254356 0 7 C-1.125 2.25 -1.125 2.25 0 0 Z " fill="#94B1BA" transform="translate(35,105)"/>
<path d="M0 0 C0.66 0.33 1.32 0.66 2 1 C1.58894145 6.24099655 0.75960806 9.24039194 -3 13 C-3.66 13 -4.32 13 -5 13 C-4.61271765 7.28758534 -4.12989477 4.26311718 0 0 Z " fill="#EDF8FA" transform="translate(103,84)"/>
<path d="M0 0 C1.98 1.32 3.96 2.64 6 4 C5.34 5.65 4.68 7.3 4 9 C2.35 9 0.7 9 -1 9 C-1.33 8.01 -1.66 7.02 -2 6 C-2.99 6.33 -3.98 6.66 -5 7 C-5 6.34 -5 5.68 -5 5 C-4.34 5 -3.68 5 -3 5 C-2.5359375 4.0409375 -2.5359375 4.0409375 -2.0625 3.0625 C-1 1 -1 1 0 0 Z " fill="#E7CBBC" transform="translate(96,48)"/>
<path d="M0 0 C0.99 0.33 1.98 0.66 3 1 C3 1.66 3 2.32 3 3 C3.99 2.67 4.98 2.34 6 2 C8.42857143 8.28571429 8.42857143 8.28571429 7 12 C6.46375 11.38125 5.9275 10.7625 5.375 10.125 C2.68896977 7.7217098 0.44585438 6.93977847 -3 6 C-2.67 5.34 -2.34 4.68 -2 4 C-1.01 4 -0.02 4 1 4 C0.67 2.68 0.34 1.36 0 0 Z " fill="#EFCC80" transform="translate(112,41)"/>
<path d="M0 0 C1.32 0.33 2.64 0.66 4 1 C4 2.98 4 4.96 4 7 C3.01 7 2.02 7 1 7 C0.67 8.98 0.34 10.96 0 13 C-0.99 13 -1.98 13 -3 13 C-3 12.34 -3 11.68 -3 11 C-3.99 11 -4.98 11 -6 11 C-6 10.34 -6 9.68 -6 9 C-4.68 9 -3.36 9 -2 9 C-1.34 6.03 -0.68 3.06 0 0 Z " fill="#276984" transform="translate(110,71)"/>
<path d="M0 0 C1.32 0 2.64 0 4 0 C4.19622241 4.21878192 3.80230168 7.17010894 2 11 C1.34 11 0.68 11 0 11 C0 10.34 0 9.68 0 9 C-0.99 9.33 -1.98 9.66 -3 10 C-2.01 6.7 -1.02 3.4 0 0 Z " fill="#1D6480" transform="translate(72,82)"/>
<path d="M0 0 C1.84765625 0.33984375 1.84765625 0.33984375 4.0625 0.9375 C5.16271484 1.22947266 5.16271484 1.22947266 6.28515625 1.52734375 C7.13400391 1.76130859 7.13400391 1.76130859 8 2 C8 2.33 8 2.66 8 3 C6.35 3 4.7 3 3 3 C3 3.66 3 4.32 3 5 C1.02 5.33 -0.96 5.66 -3 6 C-3 5.34 -3 4.68 -3 4 C-4.65 4 -6.3 4 -8 4 C-8.33 4.66 -8.66 5.32 -9 6 C-9.33 4.68 -9.66 3.36 -10 2 C-6.80285048 0.93428349 -4.34084942 1 -1 1 C-0.67 0.67 -0.34 0.34 0 0 Z " fill="#D8E7EB" transform="translate(92,98)"/>
<path d="M0 0 C0.66 0.33 1.32 0.66 2 1 C2.625 3.5625 2.625 3.5625 3 6 C0.03 8.475 0.03 8.475 -3 11 C-3.99 9.68 -4.98 8.36 -6 7 C-5.34 7 -4.68 7 -4 7 C-4 6.34 -4 5.68 -4 5 C-4.99 4.67 -5.98 4.34 -7 4 C-5.824375 3.566875 -5.824375 3.566875 -4.625 3.125 C-1.90328368 2.15087746 -1.90328368 2.15087746 0 0 Z " fill="#E9F3F7" transform="translate(113,97)"/>
<path d="M0 0 C0.66 0.99 1.32 1.98 2 3 C-2.41493776 10.09543568 -2.41493776 10.09543568 -6 12 C-8.1875 11.8125 -8.1875 11.8125 -10 11 C-10.33 10.34 -10.66 9.68 -11 9 C-9.39125 8.443125 -9.39125 8.443125 -7.75 7.875 C-3.59695744 6.13122757 -2.1541217 3.87741907 0 0 Z " fill="#2D677E" transform="translate(80,89)"/>
<path d="M0 0 C0.66 0 1.32 0 2 0 C1.69558521 3.55150592 1.02406007 4.97138802 -1.3125 7.75 C-3.74479578 9.78634065 -4.92000563 10.6577784 -8 11 C-8.66 10.01 -9.32 9.02 -10 8 C-9.01 7.67 -8.02 7.34 -7 7 C-6.67 6.34 -6.34 5.68 -6 5 C-6 5.66 -6 6.32 -6 7 C-2.57421051 3.82460444 -2.57421051 3.82460444 0 0 Z " fill="#30697F" transform="translate(135,90)"/>
<path d="M0 0 C2 1 2 1 3 3 C2.525625 3.391875 2.05125 3.78375 1.5625 4.1875 C-0.35179633 6.40808374 -0.61266988 8.13375709 -1 11 C-3.475 10.01 -3.475 10.01 -6 9 C-5.6875 7.0625 -5.6875 7.0625 -5 5 C-4.01 4.67 -3.02 4.34 -2 4 C-2.99 3.67 -3.98 3.34 -5 3 C-2.625 1.4375 -2.625 1.4375 0 0 Z " fill="#E8F6FA" transform="translate(51,101)"/>
<path d="M0 0 C0.680625 0.4125 1.36125 0.825 2.0625 1.25 C1.7325 1.91 1.4025 2.57 1.0625 3.25 C0.0725 3.25 -0.9175 3.25 -1.9375 3.25 C-2.2675 4.24 -2.5975 5.23 -2.9375 6.25 C-7.6875 5.5 -7.6875 5.5 -9.9375 3.25 C-3.66057692 -0.93461538 -3.66057692 -0.93461538 0 0 Z " fill="#F3FCFB" transform="translate(36.9375,101.75)"/>
<path d="M0 0 C0.66 0.66 1.32 1.32 2 2 C1.67 2.99 1.34 3.98 1 5 C1 4.34 1 3.68 1 3 C-0.45903258 3.30921884 -1.91720722 3.62248799 -3.375 3.9375 C-4.18710937 4.11152344 -4.99921875 4.28554687 -5.8359375 4.46484375 C-8.029463 4.92330693 -8.029463 4.92330693 -10 6 C-10.33 4.68 -10.66 3.36 -11 2 C-7.36534398 -0.32617985 -4.23963281 -0.31404687 0 0 Z " fill="#185C77" transform="translate(37,63)"/>
<path d="M0 0 C0.66 0 1.32 0 2 0 C2 6.93 2 13.86 2 21 C0.02 21.99 0.02 21.99 -2 23 C-1.84015625 22.44570312 -1.6803125 21.89140625 -1.515625 21.3203125 C-0.95328536 18.78978412 -0.79640372 16.46587449 -0.75 13.875 C-0.72421875 13.00617188 -0.6984375 12.13734375 -0.671875 11.2421875 C-0.78015625 10.50226563 -0.8884375 9.76234375 -1 9 C-1.99 8.34 -2.98 7.68 -4 7 C-3.01 7 -2.02 7 -1 7 C-0.67 4.69 -0.34 2.38 0 0 Z " fill="#F4F6E9" transform="translate(55,57)"/>
<path d="M0 0 C0.99 0.33 1.98 0.66 3 1 C3 2.32 3 3.64 3 5 C2.34 5 1.68 5 1 5 C1.061875 5.928125 1.12375 6.85625 1.1875 7.8125 C1 11 1 11 -0.51171875 12.69921875 C-1.00285156 13.12847656 -1.49398437 13.55773437 -2 14 C-2.05389087 12.04196493 -2.09274217 10.08351091 -2.125 8.125 C-2.14820312 7.03445312 -2.17140625 5.94390625 -2.1953125 4.8203125 C-2 2 -2 2 0 0 Z " fill="#22617A" transform="translate(83,77)"/>
<path d="M0 0 C0.66 0 1.32 0 2 0 C2 4.62 2 9.24 2 14 C-0.88253107 11.11746893 -1.87378707 8.356789 -2.25 4.3125 C-2 2 -2 2 0 0 Z " fill="#FBF6E6" transform="translate(121,42)"/>
<path d="M0 0 C1.98 0 3.96 0 6 0 C5.67 0.66 5.34 1.32 5 2 C5.33 2.33 5.66 2.66 6 3 C6 4.32 6 5.64 6 7 C4.02 7 2.04 7 0 7 C0 4.69 0 2.38 0 0 Z " fill="#8BA6AE" transform="translate(123,105)"/>
<path d="M0 0 C0.33 0.66 0.66 1.32 1 2 C-2.63 2 -6.26 2 -10 2 C-10.33 3.32 -10.66 4.64 -11 6 C-12.9375 5.6875 -12.9375 5.6875 -15 5 C-15.33 4.01 -15.66 3.02 -16 2 C-10.51324804 0.13216954 -5.77807024 -0.2358396 0 0 Z " fill="#2D6B88" transform="translate(120,61)"/>
<path d="M0 0 C0.66 0.33 1.32 0.66 2 1 C1 5 1 5 0 9 C0.66 9 1.32 9 2 9 C1.34 10.65 0.68 12.3 0 14 C-0.99 14 -1.98 14 -3 14 C-2.40380045 9.13103697 -1.43023178 4.67209049 0 0 Z " fill="#D5ECF3" transform="translate(111,83)"/>
<path d="M0 0 C0.66 0 1.32 0 2 0 C2 0.99 2 1.98 2 3 C3.65 3 5.3 3 7 3 C7 3.66 7 4.32 7 5 C6.05125 5.0825 5.1025 5.165 4.125 5.25 C0.89538209 5.65074923 0.89538209 5.65074923 -0.375 8.0625 C-0.58125 8.701875 -0.7875 9.34125 -1 10 C-1.99 9.67 -2.98 9.34 -4 9 C-3.67 8.01 -3.34 7.02 -3 6 C-2.67 6 -2.34 6 -2 6 C-1.34 4.02 -0.68 2.04 0 0 Z " fill="#15607B" transform="translate(111,77)"/>
<path d="M0 0 C1.32 0 2.64 0 4 0 C4 0.66 4 1.32 4 2 C4.99 2 5.98 2 7 2 C7 2.66 7 3.32 7 4 C7.66 4 8.32 4 9 4 C9.33 3.34 9.66 2.68 10 2 C11.65 2.33 13.3 2.66 15 3 C14.67 3.66 14.34 4.32 14 5 C13.34 5 12.68 5 12 5 C11.67 5.99 11.34 6.98 11 8 C10.34 8 9.68 8 9 8 C8 7 7 6 6 5 C4.948125 4.29875 3.89625 3.5975 2.8125 2.875 C1.884375 2.25625 0.95625 1.6375 0 1 C0 0.67 0 0.34 0 0 Z " fill="#F9F1DB" transform="translate(106,36)"/>
<path d="M0 0 C0.66 0.66 1.32 1.32 2 2 C1.8125 4 1.8125 4 1 6 C-2 8 -2 8 -4.6875 7.625 C-5.450625 7.41875 -6.21375 7.2125 -7 7 C-4.78071806 4.09197539 -3.07030857 2.04687238 0 0 Z " fill="#246886" transform="translate(25,65)"/>
<path d="M0 0 C2.475 0.495 2.475 0.495 5 1 C4.64989059 9.35010941 4.64989059 9.35010941 1.9375 12.0625 C1.298125 12.371875 0.65875 12.68125 0 13 C0.15597656 12.44570312 0.31195313 11.89140625 0.47265625 11.3203125 C0.66730469 10.59585938 0.86195312 9.87140625 1.0625 9.125 C1.35833984 8.04605469 1.35833984 8.04605469 1.66015625 6.9453125 C2.21132607 4.92726407 2.21132607 4.92726407 1 3 C1.33 2.34 1.66 1.68 2 1 C1.34 0.67 0.68 0.34 0 0 Z " fill="#346881" transform="translate(50,65)"/>
<path d="M0 0 C0.66 0 1.32 0 2 0 C6 5.41176471 6 5.41176471 6 8 C2.37 8 -1.26 8 -5 8 C-5.33 7.34 -5.66 6.68 -6 6 C-1.545 5.505 -1.545 5.505 3 5 C2.01 4.34 1.02 3.68 0 3 C0 2.01 0 1.02 0 0 Z " fill="#BF7B5B" transform="translate(115,52)"/>
<path d="M0 0 C3.63 0 7.26 0 11 0 C10.67 1.32 10.34 2.64 10 4 C6.37 3.67 2.74 3.34 -1 3 C-0.67 2.01 -0.34 1.02 0 0 Z " fill="#0F6287" transform="translate(110,63)"/>
<path d="M0 0 C2.70108504 0.090916 5.36930311 0.23740766 8.0625 0.4375 C9.20041992 0.51581055 9.20041992 0.51581055 10.36132812 0.59570312 C12.24121722 0.72575835 14.12065685 0.86228038 16 1 C15.67 1.66 15.34 2.32 15 3 C14.443125 2.97679687 13.88625 2.95359375 13.3125 2.9296875 C7.82390985 2.79988976 3.2706649 3.46671566 -2 5 C-1.125 1.125 -1.125 1.125 0 0 Z " fill="#F1F5F6" transform="translate(105,59)"/>
<path d="M0 0 C2.64 0 5.28 0 8 0 C8.33 1.32 8.66 2.64 9 4 C8.01 4 7.02 4 6 4 C6 4.99 6 5.98 6 7 C5.34 7 4.68 7 4 7 C4 5.68 4 4.36 4 3 C2.68 2.67 1.36 2.34 0 2 C0 1.34 0 0.68 0 0 Z " fill="#135C77" transform="translate(123,82)"/>
<path d="M0 0 C3.3 0 6.6 0 10 0 C6.74551903 2.16965398 3.4746415 3.36143262 -0.1875 4.625 C-0.84169922 4.85445313 -1.49589844 5.08390625 -2.16992188 5.3203125 C-3.77864135 5.88395144 -5.38914977 6.44247984 -7 7 C-7 6.34 -7 5.68 -7 5 C-6.030625 4.54625 -5.06125 4.0925 -4.0625 3.625 C-0.92920418 2.34213779 -0.92920418 2.34213779 0 0 Z " fill="#E2F3F7" transform="translate(86,66)"/>
<path d="M0 0 C1.88391785 3.26545761 2.49287967 6.28111761 3 10 C2.01 10.66 1.02 11.32 0 12 C0 11.34 0 10.68 0 10 C-1.98 10 -3.96 10 -6 10 C-6 9.67 -6 9.34 -6 9 C-4.02 9 -2.04 9 0 9 C0 8.34 0 7.68 0 7 C-1.65 7 -3.3 7 -5 7 C-4.67 6.34 -4.34 5.68 -4 5 C-2.68 5 -1.36 5 0 5 C0 3.35 0 1.7 0 0 Z " fill="#CEE6ED" transform="translate(118,73)"/>
<path d="M0 0 C-3.3 3.3 -6.6 6.6 -10 10 C-10.33 9.34 -10.66 8.68 -11 8 C-10.525625 7.401875 -10.05125 6.80375 -9.5625 6.1875 C-7.83534256 3.99617076 -7.83534256 3.99617076 -7 1 C-2.55696203 -1.27848101 -2.55696203 -1.27848101 0 0 Z " fill="#ECC469" transform="translate(71,58)"/>
<path d="M0 0 C0.66 0.66 1.32 1.32 2 2 C1.34 2 0.68 2 0 2 C0 2.66 0 3.32 0 4 C0.66 4.33 1.32 4.66 2 5 C-1.75 8 -1.75 8 -4 8 C-4.33 8.99 -4.66 9.98 -5 11 C-5.33 10.34 -5.66 9.68 -6 9 C-6.66 8.67 -7.32 8.34 -8 8 C-7.38125 7.7525 -6.7625 7.505 -6.125 7.25 C-3.61104784 5.77120461 -3.1465949 4.62078835 -2 2 C-1.34 1.34 -0.68 0.68 0 0 Z " fill="#C87F5D" transform="translate(84,51)"/>
<path d="M0 0 C1.98 0 3.96 0 6 0 C5.67 2.31 5.34 4.62 5 7 C3.33333333 7 1.66666667 7 0 7 C0 4.69 0 2.38 0 0 Z " fill="#829DA6" transform="translate(69,105)"/>
<path d="M0 0 C0.33 0.66 0.66 1.32 1 2 C2.32 2 3.64 2 5 2 C5 1.34 5 0.68 5 0 C6.32 0 7.64 0 9 0 C7.125 3.875 7.125 3.875 6 5 C4.33382885 5.04063832 2.66611905 5.042721 1 5 C0.67 3.35 0.34 1.7 0 0 Z " fill="#2D667E" transform="translate(119,73)"/>
<path d="M0 0 C0.33 1.65 0.66 3.3 1 5 C1.99 5 2.98 5 4 5 C3.67 5.66 3.34 6.32 3 7 C2.0925 6.649375 1.185 6.29875 0.25 5.9375 C-2.87758436 5.03531221 -4.05208081 4.86618493 -7 6 C-7 5.34 -7 4.68 -7 4 C-2.52941176 0 -2.52941176 0 0 0 Z " fill="#FBEEE5" transform="translate(82,60)"/>
<path d="M0 0 C1.65 0 3.3 0 5 0 C4.278125 0.53625 3.55625 1.0725 2.8125 1.625 C-0.247842 4.2092888 -2.51220011 6.87248014 -5 10 C-5.99 9.67 -6.98 9.34 -8 9 C-6.38405168 6.95880212 -4.7143618 4.95927063 -3 3 C-2.34 3 -1.68 3 -1 3 C-0.67 2.01 -0.34 1.02 0 0 Z " fill="#ECC977" transform="translate(93,41)"/>
<path d="M0 0 C0.99 0.33 1.98 0.66 3 1 C3.73046875 2.84765625 3.73046875 2.84765625 4.1875 5.0625 C4.34605469 5.79597656 4.50460938 6.52945313 4.66796875 7.28515625 C4.83232422 8.13400391 4.83232422 8.13400391 5 9 C3.68 8.34 2.36 7.68 1 7 C0.67 8.32 0.34 9.64 0 11 C0 7.37 0 3.74 0 0 Z " fill="#F3EDE3" transform="translate(125,42)"/>
<path d="M0 0 C1.65 0 3.3 0 5 0 C5 1.98 5 3.96 5 6 C3.35 6.33 1.7 6.66 0 7 C0 4.69 0 2.38 0 0 Z " fill="#FCEEE1" transform="translate(67,68)"/>
<path d="M0 0 C0.33 0 0.66 0 1 0 C1.31620422 6.79839071 0.12676382 13.30983984 -1 20 C-1.33 20 -1.66 20 -2 20 C-2.0544452 17.79194476 -2.09299283 15.58349446 -2.125 13.375 C-2.14820313 12.14523438 -2.17140625 10.91546875 -2.1953125 9.6484375 C-2.0030428 6.05683959 -1.30258556 3.33338825 0 0 Z " fill="#EBCF88" transform="translate(58,54)"/>
<path d="M0 0 C2 3 2 3 1.625 5.1875 C1.41875 5.785625 1.2125 6.38375 1 7 C0.34 7 -0.32 7 -1 7 C-1.33 7.99 -1.66 8.98 -2 10 C-2.99 9.67 -3.98 9.34 -5 9 C-4.34 7.35 -3.68 5.7 -3 4 C-2.34 4 -1.68 4 -1 4 C-0.67 2.68 -0.34 1.36 0 0 Z " fill="#1B6785" transform="translate(129,84)"/>
<path d="M0 0 C0.33 0 0.66 0 1 0 C1 1.65 1 3.3 1 5 C1.66 5 2.32 5 3 5 C3.33 3.68 3.66 2.36 4 1 C4.66 1 5.32 1 6 1 C6.66 2.98 7.32 4.96 8 7 C7.4225 6.814375 6.845 6.62875 6.25 6.4375 C3.79307475 5.95976454 2.35602466 6.24270636 0 7 C0 4.69 0 2.38 0 0 Z " fill="#638591" transform="translate(97,105)"/>
<path d="M0 0 C0.556875 0.7115625 0.556875 0.7115625 1.125 1.4375 C3.62646962 3.52205802 5.81593418 3.64621491 9 4 C9 4.33 9 4.66 9 5 C5.37 5.33 1.74 5.66 -2 6 C-2.66 4.68 -3.32 3.36 -4 2 C-3.34 2 -2.68 2 -2 2 C-2 2.66 -2 3.32 -2 4 C-1.34 4 -0.68 4 0 4 C0 2.68 0 1.36 0 0 Z " fill="#2C6C8C" transform="translate(16,99)"/>
<path d="M0 0 C0.33 0 0.66 0 1 0 C1 1.65 1 3.3 1 5 C0.01 5 -0.98 5 -2 5 C-2.33 5.99 -2.66 6.98 -3 8 C-3.66 7.67 -4.32 7.34 -5 7 C-5 6.34 -5 5.68 -5 5 C-5.99 4.67 -6.98 4.34 -8 4 C-6.576875 3.566875 -6.576875 3.566875 -5.125 3.125 C-1.94788422 2.23174891 -1.94788422 2.23174891 0 0 Z " fill="#D5E9F1" transform="translate(68,96)"/>
<path d="M0 0 C0.33 0.66 0.66 1.32 1 2 C1.99 2 2.98 2 4 2 C4 1.34 4 0.68 4 0 C4.66 0.33 5.32 0.66 6 1 C4.1875 4 4.1875 4 2 7 C1.01 7 0.02 7 -1 7 C-0.67 4.69 -0.34 2.38 0 0 Z " fill="#C8E3EE" transform="translate(54,90)"/>
<path d="M0 0 C0.66 0.33 1.32 0.66 2 1 C1.67 1.99 1.34 2.98 1 4 C0.93259135 5.56118428 0.91485544 7.1250252 0.9375 8.6875 C0.94652344 9.49574219 0.95554688 10.30398437 0.96484375 11.13671875 C0.97644531 11.75160156 0.98804688 12.36648437 1 13 C0.01 13 -0.98 13 -2 13 C-2 2 -2 2 0 0 Z " fill="#C1E0ED" transform="translate(49,87)"/>
<path d="M0 0 C0.66 0 1.32 0 2 0 C1.67 2.97 1.34 5.94 1 9 C0.01 9 -0.98 9 -2 9 C-2.125 5.625 -2.125 5.625 -2 2 C-1.34 1.34 -0.68 0.68 0 0 Z " fill="#075D86" transform="translate(14,88)"/>
<path d="M0 0 C2.31 0 4.62 0 7 0 C7 1.65 7 3.3 7 5 C4.69 4.34 2.38 3.68 0 3 C0 2.01 0 1.02 0 0 Z " fill="#F5FBFC" transform="translate(73,78)"/>
<path d="M0 0 C1.32 0 2.64 0 4 0 C4 1.65 4 3.3 4 5 C2.35 5 0.7 5 -1 5 C-1 1 -1 1 0 0 Z " fill="#1F607C" transform="translate(100,74)"/>
<path d="M0 0 C0.66 0.33 1.32 0.66 2 1 C1.40477663 2.44122613 0.79842381 3.87785868 0.1875 5.3125 C-0.31716797 6.51326172 -0.31716797 6.51326172 -0.83203125 7.73828125 C-1.98200704 9.96515745 -3.13626961 11.34987767 -5 13 C-4.54803755 11.39402675 -4.08817673 9.79027492 -3.625 8.1875 C-3.36976562 7.29417969 -3.11453125 6.40085937 -2.8515625 5.48046875 C-2 3 -2 3 0 0 Z " fill="#B9E2EE" transform="translate(51,69)"/>
<path d="M0 0 C1.65 0 3.3 0 5 0 C4 2.5 4 2.5 2 5 C-0.79374292 5.46837899 -3.14221036 5.23424505 -6 5 C-5.67 4.34 -5.34 3.68 -5 3 C-2.4375 2.375 -2.4375 2.375 0 2 C0 1.34 0 0.68 0 0 Z " fill="#EBC76C" transform="translate(78,50)"/>
<path d="M0 0 C0.99 0.33 1.98 0.66 3 1 C2.34 1 1.68 1 1 1 C0.731875 1.9075 0.46375 2.815 0.1875 3.75 C-0.89576294 6.71471963 -1.98359457 8.6169754 -4 11 C-4 8.36 -4 5.72 -4 3 C-3.01 2.67 -2.02 2.34 -1 2 C-0.67 1.34 -0.34 0.68 0 0 Z " fill="#FDF8E4" transform="translate(61,45)"/>
<path d="M0 0 C0.33 0.66 0.66 1.32 1 2 C0.67 2.99 0.34 3.98 0 5 C0.66 5 1.32 5 2 5 C1.34 6.32 0.68 7.64 0 9 C-0.99 9 -1.98 9 -3 9 C-2.5020163 5.26512223 -2.12508244 3.18762365 0 0 Z " fill="#C7E3ED" transform="translate(121,88)"/>
<path d="M0 0 C0.66 1.32 1.32 2.64 2 4 C1.01 4.33 0.02 4.66 -1 5 C-1.33 7.31 -1.66 9.62 -2 12 C-2.99 11.67 -3.98 11.34 -5 11 C-4.34 10.34 -3.68 9.68 -3 9 C-2.75787127 7.01871492 -2.75787127 7.01871492 -2.875 4.875 C-2.936875 2.956875 -2.936875 2.956875 -3 1 C-2.01 0.67 -1.02 0.34 0 0 Z " fill="#326F8A" transform="translate(39,65)"/>
<path d="M0 0 C0 0.33 0 0.66 0 1 C-1.093125 1.103125 -2.18625 1.20625 -3.3125 1.3125 C-6.85559629 1.97307727 -7.93243723 2.2027092 -10 5 C-13 3 -13 3 -14 1 C-9.32798795 -0.20568053 -4.78503708 -0.09382426 0 0 Z " fill="#D5EAF3" transform="translate(118,66)"/>
<path d="M0 0 C0.33 0 0.66 0 1 0 C1.22354607 1.89409978 1.42819951 3.7904348 1.625 5.6875 C1.74101563 6.74324219 1.85703125 7.79898438 1.9765625 8.88671875 C2.0010326 12.13716346 1.40852563 14.10230796 0 17 C-0.66 17 -1.32 17 -2 17 C-2 16.01 -2 15.02 -2 14 C-1.34 14 -0.68 14 0 14 C0 9.38 0 4.76 0 0 Z " fill="#CBC0AE" transform="translate(123,45)"/>
<path d="M0 0 C0.66 0 1.32 0 2 0 C3.7143618 1.95927063 5.38405168 3.95880212 7 6 C4.69 6 2.38 6 0 6 C0 4.02 0 2.04 0 0 Z " fill="#D06739" transform="translate(112,52)"/>
<path d="M0 0 C0.33 0.99 0.66 1.98 1 3 C0.34 3 -0.32 3 -1 3 C-1.33 4.65 -1.66 6.3 -2 8 C-2.66 8 -3.32 8 -4 8 C-4 5.69 -4 3.38 -4 1 C-2 0 -2 0 0 0 Z " fill="#E7F0F5" transform="translate(102,102)"/>
<path d="M0 0 C1.32 0.33 2.64 0.66 4 1 C4 2.32 4 3.64 4 5 C4.99 5.33 5.98 5.66 7 6 C7 6.33 7 6.66 7 7 C5.35 7 3.7 7 2 7 C1.34 4.69 0.68 2.38 0 0 Z " fill="#0B5774" transform="translate(93,93)"/>
<path d="M0 0 C1.32 0.33 2.64 0.66 4 1 C4 2.98 4 4.96 4 7 C2.68 7 1.36 7 0 7 C0 4.69 0 2.38 0 0 Z " fill="#6C90A2" transform="translate(64,105)"/>
<path d="M0 0 C0.66 0.33 1.32 0.66 2 1 C1.67 3.64 1.34 6.28 1 9 C-0.98 9.66 -2.96 10.32 -5 11 C-4.360625 9.9275 -3.72125 8.855 -3.0625 7.75 C-1.59398727 5.19177818 -0.47145458 2.94659114 0 0 Z " fill="#C2E4EF" transform="translate(37,91)"/>
<path d="M0 0 C0 0.66 0 1.32 0 2 C1.32 2.33 2.64 2.66 4 3 C2.35 3.66 0.7 4.32 -1 5 C-1 3.68 -1 2.36 -1 1 C-2.98 1.99 -2.98 1.99 -5 3 C-5.99 2.01 -6.98 1.02 -8 0 C-4.94736336 -0.98120464 -3.05263664 -0.98120464 0 0 Z " fill="#DCEDF2" transform="translate(99,71)"/>
<path d="M0 0 C1.32 0.33 2.64 0.66 4 1 C4 2.98 4 4.96 4 7 C2.66666667 7 1.33333333 7 0 7 C0 4.69 0 2.38 0 0 Z " fill="#638B9A" transform="translate(92,105)"/>
<path d="M0 0 C1.2077558 3.62326739 0.54311128 4.64146369 -1 8 C-1.66 7.67 -2.32 7.34 -3 7 C-3 6.34 -3 5.68 -3 5 C-4.65 5 -6.3 5 -8 5 C-8 4.67 -8 4.34 -8 4 C-6.576875 3.566875 -6.576875 3.566875 -5.125 3.125 C-1.94788422 2.23174891 -1.94788422 2.23174891 0 0 Z " fill="#CDE3EA" transform="translate(124,96)"/>
<path d="M0 0 C0.33 0.99 0.66 1.98 1 3 C1.99 3.33 2.98 3.66 4 4 C2.625 6 2.625 6 1 8 C0.34 8 -0.32 8 -1 8 C-1.125 2.25 -1.125 2.25 0 0 Z " fill="#C4E4ED" transform="translate(130,89)"/>
<path d="M0 0 C0.33 0 0.66 0 1 0 C1.33 2.31 1.66 4.62 2 7 C0.02 7.99 0.02 7.99 -2 9 C-1.125 1.125 -1.125 1.125 0 0 Z " fill="#D8EBF6" transform="translate(100,88)"/>
<path d="M0 0 C0.66 0 1.32 0 2 0 C1.125 5.75 1.125 5.75 0 8 C-0.99 8 -1.98 8 -3 8 C-1.125 2.25 -1.125 2.25 0 0 Z " fill="#CAE8EF" transform="translate(84,86)"/>
<path d="M0 0 C0.99 0.33 1.98 0.66 3 1 C2.34 2.98 1.68 4.96 1 7 C0.01 6.67 -0.98 6.34 -2 6 C-1.125 1.125 -1.125 1.125 0 0 Z " fill="#0B5A7C" transform="translate(42,84)"/>
<path d="M0 0 C1.98 0.495 1.98 0.495 4 1 C4 2.65 4 4.3 4 6 C3.01 5.67 2.02 5.34 1 5 C0.34 5.66 -0.32 6.32 -1 7 C-0.67 4.69 -0.34 2.38 0 0 Z " fill="#22607B" transform="translate(97,82)"/>
<path d="M0 0 C1.65 0.33 3.3 0.66 5 1 C5 1.99 5 2.98 5 4 C3.35 4.33 1.7 4.66 0 5 C-0.33 4.01 -0.66 3.02 -1 2 C-0.67 1.34 -0.34 0.68 0 0 Z " fill="#F3C359" transform="translate(108,41)"/>
<path d="M0 0 C0.66 0 1.32 0 2 0 C2.33 1.32 2.66 2.64 3 4 C2.01 4.66 1.02 5.32 0 6 C0 5.34 0 4.68 0 4 C-1.32 4.33 -2.64 4.66 -4 5 C-2.71937515 3.2925002 -1.38232443 1.62626404 0 0 Z " fill="#206381" transform="translate(121,82)"/>
<path d="M0 0 C1.98 0.495 1.98 0.495 4 1 C3.67 2.98 3.34 4.96 3 7 C2.67 6.01 2.34 5.02 2 4 C1.01 4 0.02 4 -1 4 C-0.67 2.68 -0.34 1.36 0 0 Z " fill="#2A6981" transform="translate(63,82)"/>
<path d="M0 0 C1.65 0.33 3.3 0.66 5 1 C4.41734375 1.26554687 3.8346875 1.53109375 3.234375 1.8046875 C0.93825772 3.03302996 -0.80356018 4.40314939 -2.75 6.125 C-3.36359375 6.66382812 -3.9771875 7.20265625 -4.609375 7.7578125 C-5.06828125 8.16773437 -5.5271875 8.57765625 -6 9 C-4.38617243 5.59787701 -2.41396234 2.89675481 0 0 Z " fill="#B9E1EF" transform="translate(50,80)"/>
<path d="M0 0 C0.66 0.33 1.32 0.66 2 1 C0.68 4.63 -0.64 8.26 -2 12 C-2.33 12 -2.66 12 -3 12 C-2.88601335 10.37419034 -2.75844341 8.74932843 -2.625 7.125 C-2.55539062 6.22007813 -2.48578125 5.31515625 -2.4140625 4.3828125 C-2 2 -2 2 0 0 Z " fill="#DDF2F8" transform="translate(13,76)"/>
<path d="M0 0 C0.598125 0.350625 1.19625 0.70125 1.8125 1.0625 C-0.1875 3.0625 -0.1875 3.0625 -2.8125 3.1875 C-3.59625 3.14625 -4.38 3.105 -5.1875 3.0625 C-5.1875 2.0725 -5.1875 1.0825 -5.1875 0.0625 C-2.1875 -0.9375 -2.1875 -0.9375 0 0 Z " fill="#236480" transform="translate(98.1875,66.9375)"/>
<path d="M0 0 C0.66 0.33 1.32 0.66 2 1 C2.66 1 3.32 1 4 1 C4.33 1.99 4.66 2.98 5 4 C2.6875 4.6875 2.6875 4.6875 0 5 C-1.8125 3.5625 -1.8125 3.5625 -3 2 C-2.01 1.34 -1.02 0.68 0 0 Z " fill="#E1EDF0" transform="translate(30,103)"/>
<path d="M0 0 C1.24546405 2.49092811 0.7767578 3.41080733 0 6 C1.32 5.34 2.64 4.68 4 4 C4.33 4.99 4.66 5.98 5 7 C4.01 7.66 3.02 8.32 2 9 C1.01 8.34 0.02 7.68 -1 7 C-1.25 3.9375 -1.25 3.9375 -1 1 C-0.67 0.67 -0.34 0.34 0 0 Z " fill="#2F6C8A" transform="translate(98,91)"/>
<path d="M0 0 C1.32 0 2.64 0 4 0 C3.1875 2.4375 3.1875 2.4375 2 5 C1.01 5.33 0.02 5.66 -1 6 C-0.67 4.02 -0.34 2.04 0 0 Z " fill="#BCDDE7" transform="translate(64,91)"/>
<path d="M0 0 C0.66 0.33 1.32 0.66 2 1 C1.67 3.31 1.34 5.62 1 8 C0.01 7.67 -0.98 7.34 -2 7 C-1.125 2.25 -1.125 2.25 0 0 Z " fill="#F0F7F6" transform="translate(113,85)"/>
<path d="M0 0 C0.66 0.33 1.32 0.66 2 1 C2.40729228 3.32156597 2.74438677 5.6568787 3 8 C1.68 7.01 0.36 6.02 -1 5 C-0.67 3.35 -0.34 1.7 0 0 Z " fill="#E2C180" transform="translate(117,45)"/>
<path d="M0 0 C0.66 0 1.32 0 2 0 C2 1.98 2 3.96 2 6 C2.66 6.33 3.32 6.66 4 7 C2.68 7 1.36 7 0 7 C-1.125 2.25 -1.125 2.25 0 0 Z " fill="#89A9B5" transform="translate(118,105)"/>
<path d="M0 0 C0.66 0 1.32 0 2 0 C2.66 1.98 3.32 3.96 4 6 C3.34 6 2.68 6 2 6 C2 5.34 2 4.68 2 4 C0.02 4.99 0.02 4.99 -2 6 C-1.34 4.02 -0.68 2.04 0 0 Z " fill="#698997" transform="translate(77,106)"/>
<path d="M0 0 C2.64 0 5.28 0 8 0 C6.515 2.475 6.515 2.475 5 5 C2.85613041 3.92806521 1.60996598 2.75632653 0 1 C0 0.67 0 0.34 0 0 Z " fill="#DEEAF0" transform="translate(35,100)"/>
<path d="M0 0 C1.32 0.33 2.64 0.66 4 1 C4 2.32 4 3.64 4 5 C2.68 5 1.36 5 0 5 C0 3.35 0 1.7 0 0 Z " fill="#175F76" transform="translate(38,95)"/>
<path d="M0 0 C0.99 0 1.98 0 3 0 C3.33 1.65 3.66 3.3 4 5 C3.01 5.33 2.02 5.66 1 6 C1 5.34 1 4.68 1 4 C0.01 3.67 -0.98 3.34 -2 3 C-1.34 2.01 -0.68 1.02 0 0 Z " fill="#E6F6FA" transform="translate(80,94)"/>
<path d="M0 0 C0.185625 0.9590625 0.185625 0.9590625 0.375 1.9375 C0.684375 2.9584375 0.684375 2.9584375 1 4 C1.66 4.33 2.32 4.66 3 5 C1.625 6.5 1.625 6.5 0 8 C-0.66 8 -1.32 8 -2 8 C-1.125 2.25 -1.125 2.25 0 0 Z " fill="#BEE0EB" transform="translate(90,89)"/>
<path d="M0 0 C0.33 0.66 0.66 1.32 1 2 C1.99 2.33 2.98 2.66 4 3 C3.67 4.65 3.34 6.3 3 8 C2.01 7.34 1.02 6.68 0 6 C0 5.67 0 5.34 0 5 C-0.33 4.34 -0.66 3.68 -1 3 C-0.67 2.01 -0.34 1.02 0 0 Z " fill="#2F6E8C" transform="translate(106,84)"/>
<path d="M0 0 C2.64 0 5.28 0 8 0 C7.67 1.65 7.34 3.3 7 5 C5.68 4.34 4.36 3.68 3 3 C3.66 2.67 4.32 2.34 5 2 C3.35 1.67 1.7 1.34 0 1 C0 0.67 0 0.34 0 0 Z " fill="#CEDDE5" transform="translate(60,78)"/>
<path d="M0 0 C1.5 1.25 1.5 1.25 3 3 C3 4.32 3 5.64 3 7 C1.68 7 0.36 7 -1 7 C-1.33 6.01 -1.66 5.02 -2 4 C-1.01 4 -0.02 4 1 4 C0.67 2.68 0.34 1.36 0 0 Z " fill="#C9E3EC" transform="translate(121,68)"/>
<path d="M0 0 C2.62187494 1.04874998 3.79371361 1.64931313 5.25 4.125 C5.4975 4.74375 5.745 5.3625 6 6 C4.35 5.01 2.7 4.02 1 3 C1 3.66 1 4.32 1 5 C0.01 4.67 -0.98 4.34 -2 4 C-1.34 3.67 -0.68 3.34 0 3 C0 2.01 0 1.02 0 0 Z " fill="#155C78" transform="translate(121,62)"/>
<path d="M0 0 C0.66 0 1.32 0 2 0 C2.33 1.32 2.66 2.64 3 4 C1.02 4.66 -0.96 5.32 -3 6 C-3 5.34 -3 4.68 -3 4 C-2.34 4 -1.68 4 -1 4 C-0.67 2.68 -0.34 1.36 0 0 Z " fill="#DFE8E7" transform="translate(100,60)"/>
<path d="M0 0 C1.65 0 3.3 0 5 0 C5.66 1.32 6.32 2.64 7 4 C2.25 3.125 2.25 3.125 0 2 C0 1.34 0 0.68 0 0 Z " fill="#BE6A46" transform="translate(84,53)"/>
<path d="M0 0 C0 1.32 0 2.64 0 4 C-2.9375 3.625 -2.9375 3.625 -6 3 C-6.33 2.34 -6.66 1.68 -7 1 C-2.25 0 -2.25 0 0 0 Z " fill="#C9704E" transform="translate(112,54)"/>
<path d="M0 0 C1.32 0.33 2.64 0.66 4 1 C4 1.99 4 2.98 4 4 C3.01 4 2.02 4 1 4 C0.67 4.99 0.34 5.98 0 7 C0 4.69 0 2.38 0 0 Z " fill="#6B9099" transform="translate(84,105)"/>
<path d="M0 0 C0.6875 1.8125 0.6875 1.8125 1 4 C-0.4375 5.75 -0.4375 5.75 -2 7 C-4 4 -4 4 -4 2 C-2.68 1.34 -1.36 0.68 0 0 Z " fill="#09587C" transform="translate(128,91)"/>
<path d="M0 0 C0.99 0 1.98 0 3 0 C3.625 1.875 3.625 1.875 4 4 C3.34 4.66 2.68 5.32 2 6 C1.01 6 0.02 6 -1 6 C-0.67 4.02 -0.34 2.04 0 0 Z " fill="#E2F1F4" transform="translate(66,86)"/>
<path d="M0 0 C3 3.875 3 3.875 3 5 C1.35 5 -0.3 5 -2 5 C-2.33 3.68 -2.66 2.36 -3 1 C-2.01 0.67 -1.02 0.34 0 0 Z " fill="#256783" transform="translate(31,79)"/>
<path d="M0 0 C1.32 0.33 2.64 0.66 4 1 C3.67 1.99 3.34 2.98 3 4 C2.34 4 1.68 4 1 4 C0.67 4.99 0.34 5.98 0 7 C0 4.69 0 2.38 0 0 Z " fill="#6A8F95" transform="translate(106,105)"/>
<path d="M0 0 C0.66 0.33 1.32 0.66 2 1 C2 1.99 2 2.98 2 4 C0.02 4.99 0.02 4.99 -2 6 C-2 2 -2 2 0 0 Z " fill="#286A88" transform="translate(92,94)"/>
<path d="M0 0 C-0.66 1.32 -1.32 2.64 -2 4 C-3.65 4 -5.3 4 -7 4 C-5.53303752 1.06607504 -3.25996861 0 0 0 Z " fill="#165A72" transform="translate(67,96)"/>
<path d="M0 0 C2.475 0.99 2.475 0.99 5 2 C2.8614515 4.1385485 1.86724686 4.42655063 -1 5 C-0.67 3.35 -0.34 1.7 0 0 Z " fill="#DFEEF6" transform="translate(82,74)"/>
<path d="M0 0 C0.99 0 1.98 0 3 0 C3 0.66 3 1.32 3 2 C3.66 2 4.32 2 5 2 C5 2.66 5 3.32 5 4 C3.35 4 1.7 4 0 4 C-0.33 3.01 -0.66 2.02 -1 1 C-0.67 0.67 -0.34 0.34 0 0 Z " fill="#C5693D" transform="translate(98,45)"/>
</svg>
